<?xml version="1.0" encoding="UTF-8" standalone="no"?>
<!DOCTYPE svg PUBLIC "-//W3C//DTD SVG 1.1//EN"
 "http://www.w3.org/Graphics/SVG/1.1/DTD/svg11.dtd">
<!-- Generated by graphviz version 2.40.1 (20161225.0304)
 -->
<!-- Title: state transitions Pages: 1 -->
<svg width="399pt" height="270pt"
 viewBox="0.00 0.00 399.00 270.00" xmlns="http://www.w3.org/2000/svg" xmlns:xlink="http://www.w3.org/1999/xlink">
<g id="graph0" class="graph" transform="scale(1 1) rotate(0) translate(4 266)">
<title>state transitions</title>
<polygon fill="#ffffff" stroke="transparent" points="-4,4 -4,-266 395,-266 395,4 -4,4"/>
<g id="clust1" class="cluster state regular">
<title>cluster_ts_state</title>
<path fill="none" stroke="#000000" stroke-width="2" d="M20,-8C20,-8 371,-8 371,-8 377,-8 383,-14 383,-20 383,-20 383,-242 383,-242 383,-248 377,-254 371,-254 371,-254 20,-254 20,-254 14,-254 8,-248 8,-242 8,-242 8,-20 8,-20 8,-14 14,-8 20,-8"/>
<text text-anchor="start" x="174.4916" y="-235.2" font-family="Helvetica,sans-Serif" font-size="12.00" fill="#000000">ts_state</text>
</g>
<!-- ts_state -->
<!-- IDLE_S -->
<g id="node2" class="node state regular">
<title>IDLE_S</title>
<polygon fill="#ffffff" fill-opacity="0.003922" stroke="transparent" stroke-width="2" points="213.5,-216 150.5,-216 150.5,-180 213.5,-180 213.5,-216"/>
<text text-anchor="start" x="161.8276" y="-194.2" font-family="Helvetica,sans-Serif" font-size="12.00" fill="#000000">IDLE_S</text>
<path fill="none" stroke="#000000" stroke-width="2" d="M162.8333,-181C162.8333,-181 201.1667,-181 201.1667,-181 206.8333,-181 212.5,-186.6667 212.5,-192.3333 212.5,-192.3333 212.5,-203.6667 212.5,-203.6667 212.5,-209.3333 206.8333,-215 201.1667,-215 201.1667,-215 162.8333,-215 162.8333,-215 157.1667,-215 151.5,-209.3333 151.5,-203.6667 151.5,-203.6667 151.5,-192.3333 151.5,-192.3333 151.5,-186.6667 157.1667,-181 162.8333,-181"/>
</g>
<!-- SEND_HIGH_S -->
<g id="node3" class="node state regular">
<title>SEND_HIGH_S</title>
<polygon fill="#ffffff" fill-opacity="0.003922" stroke="transparent" stroke-width="2" points="122,-134 16,-134 16,-98 122,-98 122,-134"/>
<text text-anchor="start" x="26.6646" y="-112.2" font-family="Helvetica,sans-Serif" font-size="12.00" fill="#000000">SEND_HIGH_S</text>
<path fill="none" stroke="#000000" stroke-width="2" d="M28.3333,-99C28.3333,-99 109.6667,-99 109.6667,-99 115.3333,-99 121,-104.6667 121,-110.3333 121,-110.3333 121,-121.6667 121,-121.6667 121,-127.3333 115.3333,-133 109.6667,-133 109.6667,-133 28.3333,-133 28.3333,-133 22.6667,-133 17,-127.3333 17,-121.6667 17,-121.6667 17,-110.3333 17,-110.3333 17,-104.6667 22.6667,-99 28.3333,-99"/>
</g>
<!-- IDLE_S&#45;&gt;SEND_HIGH_S -->
<g id="edge1" class="edge transition">
<title>IDLE_S&#45;&gt;SEND_HIGH_S</title>
<path fill="none" stroke="#000000" d="M150.334,-193.6451C116.7401,-188.2998 66.9489,-178.0519 55.496,-163 51.2821,-157.4619 51.1511,-150.6517 52.9205,-143.9519"/>
<polygon fill="#000000" stroke="#000000" points="56.281,-144.9654 56.6183,-134.3759 49.7509,-142.4437 56.281,-144.9654"/>
<text text-anchor="start" x="55" y="-154" font-family="Helvetica,sans-Serif" font-size="10.00" fill="#000000">s_axis.tvalid &amp;&amp; s_axis.tready &amp;&amp; s_axis.tlast &amp;&amp; is_ptp &#160;&#160;</text>
</g>
<!-- SEND_HIGH_S&#45;&gt;SEND_HIGH_S -->
<g id="edge3" class="edge transition">
<title>SEND_HIGH_S&#45;&gt;SEND_HIGH_S</title>
<path fill="none" stroke="#000000" d="M122.2553,-120.7786C134.7684,-120.3858 144,-118.793 144,-116 144,-114.0362 139.4361,-112.6657 132.3765,-111.8885"/>
<polygon fill="#000000" stroke="#000000" points="132.4639,-108.3868 122.2553,-111.2214 132.0035,-115.3716 132.4639,-108.3868"/>
<text text-anchor="start" x="144" y="-113" font-family="Helvetica,sans-Serif" font-size="10.00" fill="#000000">not (ts_m_axis.tready) &#160;&#160;</text>
</g>
<!-- SEND_LOW_S -->
<g id="node4" class="node state regular">
<title>SEND_LOW_S</title>
<polygon fill="#ffffff" fill-opacity="0.003922" stroke="transparent" stroke-width="2" points="186,-52 82,-52 82,-16 186,-16 186,-52"/>
<text text-anchor="start" x="92.996" y="-30.2" font-family="Helvetica,sans-Serif" font-size="12.00" fill="#000000">SEND_LOW_S</text>
<path fill="none" stroke="#000000" stroke-width="2" d="M94.3333,-17C94.3333,-17 173.6667,-17 173.6667,-17 179.3333,-17 185,-22.6667 185,-28.3333 185,-28.3333 185,-39.6667 185,-39.6667 185,-45.3333 179.3333,-51 173.6667,-51 173.6667,-51 94.3333,-51 94.3333,-51 88.6667,-51 83,-45.3333 83,-39.6667 83,-39.6667 83,-28.3333 83,-28.3333 83,-22.6667 88.6667,-17 94.3333,-17"/>
</g>
<!-- SEND_HIGH_S&#45;&gt;SEND_LOW_S -->
<g id="edge2" class="edge transition">
<title>SEND_HIGH_S&#45;&gt;SEND_LOW_S</title>
<path fill="none" stroke="#000000" d="M83.4256,-97.8015C92.1775,-86.7606 103.4935,-72.4851 113.2018,-60.2378"/>
<polygon fill="#000000" stroke="#000000" points="116.1456,-62.1584 119.6147,-52.1476 110.6599,-57.81 116.1456,-62.1584"/>
<text text-anchor="start" x="105" y="-72" font-family="Helvetica,sans-Serif" font-size="10.00" fill="#000000">ts_m_axis.tready &#160;&#160;</text>
</g>
<!-- SEND_LOW_S&#45;&gt;IDLE_S -->
<g id="edge4" class="edge transition">
<title>SEND_LOW_S&#45;&gt;IDLE_S</title>
<path fill="none" stroke="#000000" d="M186.4278,-50.2925C230.4217,-67.3093 289.4324,-98.9312 311,-151 326.1143,-187.4892 264.8453,-168.7025 227,-180 225.7755,-180.3655 224.5379,-180.7511 223.293,-181.1529"/>
<polygon fill="#000000" stroke="#000000" points="221.9977,-177.8978 213.7055,-184.4925 224.3003,-184.5082 221.9977,-177.8978"/>
<text text-anchor="start" x="301" y="-113" font-family="Helvetica,sans-Serif" font-size="10.00" fill="#000000">ts_m_axis.tready &#160;&#160;</text>
</g>
<!-- SEND_LOW_S&#45;&gt;SEND_LOW_S -->
<g id="edge5" class="edge transition">
<title>SEND_LOW_S&#45;&gt;SEND_LOW_S</title>
<path fill="none" stroke="#000000" d="M186.2077,-38.789C198.7252,-38.4147 208,-36.8184 208,-34 208,-32.0183 203.4147,-30.6408 196.3409,-29.8675"/>
<polygon fill="#000000" stroke="#000000" points="196.4131,-26.3649 186.2077,-29.211 195.9605,-33.3503 196.4131,-26.3649"/>
<text text-anchor="start" x="208" y="-31" font-family="Helvetica,sans-Serif" font-size="10.00" fill="#000000">not (ts_m_axis.tready) &#160;&#160;</text>
</g>
</g>
</svg>
