<?xml version="1.0" encoding="UTF-8" standalone="no"?>
<!DOCTYPE svg PUBLIC "-//W3C//DTD SVG 1.1//EN"
 "http://www.w3.org/Graphics/SVG/1.1/DTD/svg11.dtd">
<!-- Generated by graphviz version 2.40.1 (20161225.0304)
 -->
<!-- Title: state transitions Pages: 1 -->
<svg width="498pt" height="270pt"
 viewBox="0.00 0.00 498.00 270.00" xmlns="http://www.w3.org/2000/svg" xmlns:xlink="http://www.w3.org/1999/xlink">
<g id="graph0" class="graph" transform="scale(1 1) rotate(0) translate(4 266)">
<title>state transitions</title>
<polygon fill="#ffffff" stroke="transparent" points="-4,4 -4,-266 494,-266 494,4 -4,4"/>
<g id="clust1" class="cluster state regular">
<title>cluster_state_rcv_discover_s</title>
<path fill="none" stroke="#000000" stroke-width="2" d="M20,-8C20,-8 470,-8 470,-8 476,-8 482,-14 482,-20 482,-20 482,-242 482,-242 482,-248 476,-254 470,-254 470,-254 20,-254 20,-254 14,-254 8,-248 8,-242 8,-242 8,-20 8,-20 8,-14 14,-8 20,-8"/>
<text text-anchor="start" x="188.6558" y="-235.2" font-family="Helvetica,sans-Serif" font-size="12.00" fill="#000000">state_rcv_discover_s</text>
</g>
<!-- state_rcv_discover_s -->
<!-- IDLE_S -->
<g id="node2" class="node state regular">
<title>IDLE_S</title>
<polygon fill="#ffffff" fill-opacity="0.003922" stroke="transparent" stroke-width="2" points="207.5,-216 144.5,-216 144.5,-180 207.5,-180 207.5,-216"/>
<text text-anchor="start" x="155.8276" y="-194.2" font-family="Helvetica,sans-Serif" font-size="12.00" fill="#000000">IDLE_S</text>
<path fill="none" stroke="#000000" stroke-width="2" d="M156.8333,-181C156.8333,-181 195.1667,-181 195.1667,-181 200.8333,-181 206.5,-186.6667 206.5,-192.3333 206.5,-192.3333 206.5,-203.6667 206.5,-203.6667 206.5,-209.3333 200.8333,-215 195.1667,-215 195.1667,-215 156.8333,-215 156.8333,-215 151.1667,-215 145.5,-209.3333 145.5,-203.6667 145.5,-203.6667 145.5,-192.3333 145.5,-192.3333 145.5,-186.6667 151.1667,-181 156.8333,-181"/>
</g>
<!-- CHECK_ENTITY_S -->
<g id="node3" class="node state regular">
<title>CHECK_ENTITY_S</title>
<polygon fill="#ffffff" fill-opacity="0.003922" stroke="transparent" stroke-width="2" points="240,-134 112,-134 112,-98 240,-98 240,-134"/>
<text text-anchor="start" x="122.9984" y="-112.2" font-family="Helvetica,sans-Serif" font-size="12.00" fill="#000000">CHECK_ENTITY_S</text>
<path fill="none" stroke="#000000" stroke-width="2" d="M124.3333,-99C124.3333,-99 227.6667,-99 227.6667,-99 233.3333,-99 239,-104.6667 239,-110.3333 239,-110.3333 239,-121.6667 239,-121.6667 239,-127.3333 233.3333,-133 227.6667,-133 227.6667,-133 124.3333,-133 124.3333,-133 118.6667,-133 113,-127.3333 113,-121.6667 113,-121.6667 113,-110.3333 113,-110.3333 113,-104.6667 118.6667,-99 124.3333,-99"/>
</g>
<!-- IDLE_S&#45;&gt;CHECK_ENTITY_S -->
<g id="edge1" class="edge transition">
<title>IDLE_S&#45;&gt;CHECK_ENTITY_S</title>
<path fill="none" stroke="#000000" d="M144.4062,-193.2592C112.1621,-187.6987 65.3565,-177.3787 54.536,-163 37.2736,-140.061 67.012,-128.3148 101.376,-122.3015"/>
<polygon fill="#000000" stroke="#000000" points="102.3137,-125.697 111.647,-120.683 101.224,-118.7823 102.3137,-125.697"/>
<text text-anchor="start" x="54" y="-154" font-family="Helvetica,sans-Serif" font-size="10.00" fill="#000000">rcv_adp_discover_i &#160;&#160;</text>
</g>
<!-- CHECK_ENTITY_S&#45;&gt;IDLE_S -->
<g id="edge3" class="edge transition">
<title>CHECK_ENTITY_S&#45;&gt;IDLE_S</title>
<path fill="none" stroke="#000000" d="M176,-134.1476C176,-144.5421 176,-157.816 176,-169.5658"/>
<polygon fill="#000000" stroke="#000000" points="172.5001,-169.8015 176,-179.8015 179.5001,-169.8016 172.5001,-169.8015"/>
<text text-anchor="start" x="176" y="-154" font-family="Helvetica,sans-Serif" font-size="10.00" fill="#000000">not (rcv_entity_id_i == 64&#39;d0 || rcv_entity_id_i == entity_id_i) &#160;&#160;</text>
</g>
<!-- UPDATE_EVENT_S -->
<g id="node4" class="node state regular">
<title>UPDATE_EVENT_S</title>
<polygon fill="#ffffff" fill-opacity="0.003922" stroke="transparent" stroke-width="2" points="358,-52 226,-52 226,-16 358,-16 358,-52"/>
<text text-anchor="start" x="236.9944" y="-30.2" font-family="Helvetica,sans-Serif" font-size="12.00" fill="#000000">UPDATE_EVENT_S</text>
<path fill="none" stroke="#000000" stroke-width="2" d="M238.3333,-17C238.3333,-17 345.6667,-17 345.6667,-17 351.3333,-17 357,-22.6667 357,-28.3333 357,-28.3333 357,-39.6667 357,-39.6667 357,-45.3333 351.3333,-51 345.6667,-51 345.6667,-51 238.3333,-51 238.3333,-51 232.6667,-51 227,-45.3333 227,-39.6667 227,-39.6667 227,-28.3333 227,-28.3333 227,-22.6667 232.6667,-17 238.3333,-17"/>
</g>
<!-- CHECK_ENTITY_S&#45;&gt;UPDATE_EVENT_S -->
<g id="edge2" class="edge transition">
<title>CHECK_ENTITY_S&#45;&gt;UPDATE_EVENT_S</title>
<path fill="none" stroke="#000000" d="M187.7444,-97.7377C194.5687,-88.2228 203.8503,-76.9474 214.184,-69 219.9964,-64.5298 226.4705,-60.4797 233.1329,-56.8545"/>
<polygon fill="#000000" stroke="#000000" points="234.9785,-59.8419 242.2905,-52.1747 231.7931,-53.6087 234.9785,-59.8419"/>
<text text-anchor="start" x="214" y="-72" font-family="Helvetica,sans-Serif" font-size="10.00" fill="#000000">rcv_entity_id_i == 64&#39;d0 || rcv_entity_id_i == entity_id_i &#160;&#160;</text>
</g>
<!-- UPDATE_EVENT_S&#45;&gt;IDLE_S -->
<g id="edge4" class="edge transition">
<title>UPDATE_EVENT_S&#45;&gt;IDLE_S</title>
<path fill="none" stroke="#000000" d="M358.384,-38.767C401.577,-43.4089 452.3345,-52.3119 466,-69 492.6494,-101.5437 484.8699,-133.3846 455,-163 450.8252,-167.1393 294.8724,-184.8761 217.9884,-193.3961"/>
<polygon fill="#000000" stroke="#000000" points="217.2433,-189.957 207.6885,-194.5347 218.0126,-196.9146 217.2433,-189.957"/>
<text text-anchor="middle" x="483.3895" y="-113" font-family="Helvetica,sans-Serif" font-size="10.00" fill="#000000"> </text>
</g>
</g>
</svg>
