<svg xmlns="http://www.w3.org/2000/svg" width="1520" height="1110" viewBox="0 0 1520 1110" font-family="Helvetica,Arial,sans-serif">
<rect width="1520" height="1110" fill="#ffffff"/>
<defs><marker id="arr" markerWidth="9" markerHeight="9" refX="7" refY="3" orient="auto"><path d="M0,0 L7,3 L0,6 z" fill="#333"/></marker><marker id="arro" markerWidth="9" markerHeight="9" refX="7" refY="3" orient="auto"><path d="M0,0 L7,3 L0,6" fill="none" stroke="#999"/></marker></defs>
<rect x="40.0" y="12.0" width="1440.0" height="30.0" rx="0" fill="#f5f5f5" stroke="#666666" stroke-width="1.3"/>
<text x="760.0" y="31.9" font-size="14" fill="#222" text-anchor="middle">Milan v1.2 ATDECC entity (IEEE 1722.1-2021) — hardware datapath  ·  hdl/aecp   (pages 2-8: every block down to bit level)</text>
<rect x="40.0" y="60.0" width="1440.0" height="70.0" rx="8" fill="none" stroke="#999999" stroke-width="1.3" stroke-dasharray="6,4"/>
<text x="48.0" y="77.0" font-size="13" fill="#222" text-anchor="start" font-weight="bold">MAC / wire  (AVTP ethertype 0x22F0, in milan_datapath)</text>
<rect x="40.0" y="150.0" width="340.0" height="700.0" rx="8" fill="none" stroke="#999999" stroke-width="1.3" stroke-dasharray="6,4"/>
<text x="48.0" y="167.0" font-size="13" fill="#222" text-anchor="start" font-weight="bold">RX path   [page 2]</text>
<rect x="420.0" y="150.0" width="530.0" height="700.0" rx="8" fill="none" stroke="#999999" stroke-width="1.3" stroke-dasharray="6,4"/>
<text x="428.0" y="167.0" font-size="13" fill="#222" text-anchor="start" font-weight="bold">AECP / AEM core pipeline  (hdl/aecp/KL_aecp_*)   [pages 3-5]</text>
<rect x="1010.0" y="150.0" width="440.0" height="700.0" rx="8" fill="none" stroke="#999999" stroke-width="1.3" stroke-dasharray="6,4"/>
<text x="1018.0" y="167.0" font-size="13" fill="#222" text-anchor="start" font-weight="bold">TX path  (low-rate control merged into MAC TX)   [pages</text>
<text x="1018.0" y="183.0" font-size="13" fill="#222" text-anchor="start">7-8]</text>
<rect x="40.0" y="880.0" width="590.0" height="190.0" rx="8" fill="none" stroke="#999999" stroke-width="1.3" stroke-dasharray="6,4"/>
<text x="48.0" y="897.0" font-size="13" fill="#222" text-anchor="start" font-weight="bold">Entity model — single source of truth   [page 6]</text>
<rect x="650.0" y="880.0" width="240.0" height="190.0" rx="8" fill="none" stroke="#999999" stroke-width="1.3" stroke-dasharray="6,4"/>
<text x="658.0" y="897.0" font-size="13" fill="#222" text-anchor="start" font-weight="bold">milan_csr (CPU</text>
<text x="658.0" y="913.0" font-size="13" fill="#222" text-anchor="start">AXI-Lite)   [page 8]</text>
<rect x="910.0" y="880.0" width="470.0" height="190.0" rx="8" fill="none" stroke="#999999" stroke-width="1.3" stroke-dasharray="6,4"/>
<text x="918.0" y="897.0" font-size="13" fill="#222" text-anchor="start" font-weight="bold">Verification</text>
<rect x="70.0" y="80.0" width="240.0" height="40.0" rx="8" fill="#d5e8d4" stroke="#82b366" stroke-width="1.3"/>
<text x="190.0" y="96.85" font-size="11" fill="#222" text-anchor="middle">MAC RX  →  rx_mac_filter (TCAM)</text>
<text x="190.0" y="110.85" font-size="11" fill="#222" text-anchor="middle">post-filter stream rx_axis_to_dma</text>
<rect x="1180.0" y="80.0" width="240.0" height="40.0" rx="8" fill="#d5e8d4" stroke="#82b366" stroke-width="1.3"/>
<text x="1300.0" y="96.85" font-size="11" fill="#222" text-anchor="middle">MAC TX  (eth_mac_1g_rgmii)</text>
<text x="1300.0" y="110.85" font-size="11" fill="#222" text-anchor="middle">tx_axis_to_mac</text>
<rect x="680.0" y="85.0" width="260.0" height="30.0" rx="8" fill="#f8cecc" stroke="#b85450" stroke-width="1.3"/>
<text x="810.0" y="103.5" font-size="10" fill="#222" text-anchor="middle">→ RX DMA / CPU (kl-eth)  — the tap is a copy</text>
<rect x="60.0" y="200.0" width="280.0" height="140.0" rx="8" fill="#dae8fc" stroke="#6c8ebf" stroke-width="1.3"/>
<text x="68.0" y="215.0" font-size="10" fill="#222" text-anchor="start">KL_aecp_ingress   [p2]</text>
<text x="68.0" y="228.0" font-size="10" fill="#222" text-anchor="start"></text>
<text x="68.0" y="241.0" font-size="10" fill="#222" text-anchor="start">• MONITOR tap on rx_axis_to_dma (reads only,</text>
<text x="68.0" y="254.0" font-size="10" fill="#222" text-anchor="start">  never backpressures the NIC)</text>
<text x="68.0" y="267.0" font-size="10" fill="#222" text-anchor="start">• filter: AECP-for-us (dst=our MAC, 0xFB)</text>
<text x="68.0" y="280.0" font-size="10" fill="#222" text-anchor="start">  and ADP ENTITY_DISCOVER</text>
<text x="68.0" y="293.0" font-size="10" fill="#222" text-anchor="start">• store-and-forward (fbuf 128 B LUTRAM),</text>
<text x="68.0" y="306.0" font-size="10" fill="#222" text-anchor="start">  strip Eth hdr,</text>
<text x="68.0" y="319.0" font-size="10" fill="#222" text-anchor="start">  replay BIG-lane</text>
<text x="68.0" y="332.0" font-size="10" fill="#222" text-anchor="start">• capture controller src MAC</text>
<rect x="60.0" y="400.0" width="280.0" height="44.0" rx="8" fill="#ffe6cc" stroke="#d79b00" stroke-width="1.3"/>
<text x="200.0" y="419.0" font-size="10" fill="#222" text-anchor="middle">adp_discover_o  →  advertiser (discovery</text>
<text x="200.0" y="432.0" font-size="10" fill="#222" text-anchor="middle">response)</text>
<rect x="440.0" y="200.0" width="490.0" height="46.0" rx="8" fill="#dae8fc" stroke="#6c8ebf" stroke-width="1.3"/>
<text x="448.0" y="226.85" font-size="11" fill="#222" text-anchor="start">KL_aecp_packet_validator   [p3] — drop bad message_type / CDL &lt; 12</text>
<rect x="440.0" y="290.0" width="490.0" height="56.0" rx="8" fill="#dae8fc" stroke="#6c8ebf" stroke-width="1.3"/>
<text x="448.0" y="314.85" font-size="11" fill="#222" text-anchor="start">KL_aecp_common_parser   [p3] — extract aecp_hdr_t</text>
<text x="448.0" y="328.85" font-size="11" fill="#222" text-anchor="start">(target/controller EID, seq, command_type); entity_id match</text>
<rect x="440.0" y="400.0" width="220.0" height="100.0" rx="8" fill="#e1d5e7" stroke="#9673a6" stroke-width="1.3"/>
<text x="448.0" y="427.5" font-size="10" fill="#222" text-anchor="start">KL_aecp_l0_state   [p4]</text>
<text x="448.0" y="440.5" font-size="10" fill="#222" text-anchor="start"></text>
<text x="448.0" y="453.5" font-size="10" fill="#222" text-anchor="start">• LOCK_ENTITY (60 s timeout)</text>
<text x="448.0" y="466.5" font-size="10" fill="#222" text-anchor="start">• ACQUIRE → NOT_SUPPORTED</text>
<text x="448.0" y="479.5" font-size="10" fill="#222" text-anchor="start">• current_configuration</text>
<rect x="740.0" y="400.0" width="190.0" height="56.0" rx="8" fill="#e1d5e7" stroke="#9673a6" stroke-width="1.3"/>
<text x="748.0" y="425.0" font-size="10" fill="#222" text-anchor="start">KL_aecp_timers   [p4]</text>
<text x="748.0" y="438.0" font-size="10" fill="#222" text-anchor="start">1 kHz tick → lock timer</text>
<rect x="440.0" y="550.0" width="280.0" height="220.0" rx="8" fill="#dae8fc" stroke="#6c8ebf" stroke-width="1.3"/>
<text x="448.0" y="598.5" font-size="10" fill="#222" text-anchor="start">KL_aecp_response_builder   [p5]  — the command</text>
<text x="448.0" y="611.5" font-size="10" fill="#222" text-anchor="start">brain</text>
<text x="448.0" y="624.5" font-size="10" fill="#222" text-anchor="start"></text>
<text x="448.0" y="637.5" font-size="10" fill="#222" text-anchor="start">• capture payload, classify command</text>
<text x="448.0" y="650.5" font-size="10" fill="#222" text-anchor="start">• READ_DESCRIPTOR · GET/SET name·config·</text>
<text x="448.0" y="663.5" font-size="10" fill="#222" text-anchor="start">  sampling-rate·stream-format ·</text>
<text x="448.0" y="676.5" font-size="10" fill="#222" text-anchor="start">GET_STREAM_INFO·</text>
<text x="448.0" y="689.5" font-size="10" fill="#222" text-anchor="start">  AVB_INFO · GET_COUNTERS · GET_AS_PATH · MVU</text>
<text x="448.0" y="702.5" font-size="10" fill="#222" text-anchor="start">  GET_MILAN_INFO · SET_* write-back</text>
<text x="448.0" y="715.5" font-size="10" fill="#222" text-anchor="start">• build response frame (little-lane, CDL =</text>
<text x="448.0" y="728.5" font-size="10" fill="#222" text-anchor="start">frame − 26)</text>
<rect x="760.0" y="550.0" width="170.0" height="56.0" rx="8" fill="#d5e8d4" stroke="#82b366" stroke-width="1.3"/>
<text x="845.0" y="568.5" font-size="10" fill="#222" text-anchor="middle">KL_aecp_accessor   [p6]</text>
<text x="845.0" y="581.5" font-size="10" fill="#222" text-anchor="middle">directory 5 × 64b FF</text>
<text x="845.0" y="594.5" font-size="10" fill="#222" text-anchor="middle">(type,index) → base,len</text>
<rect x="760.0" y="626.0" width="170.0" height="56.0" rx="8" fill="#d5e8d4" stroke="#82b366" stroke-width="1.3"/>
<text x="845.0" y="638.0" font-size="10" fill="#222" text-anchor="middle">KL_aecp_aem_store   [p6]</text>
<text x="845.0" y="651.0" font-size="10" fill="#222" text-anchor="middle">ROM 808 B BRAM (byte port</text>
<text x="845.0" y="664.0" font-size="10" fill="#222" text-anchor="middle">8b)</text>
<text x="845.0" y="677.0" font-size="10" fill="#222" text-anchor="middle">+ volatile SET write-back</text>
<rect x="760.0" y="702.0" width="170.0" height="68.0" rx="8" fill="#d5e8d4" stroke="#82b366" stroke-width="1.3"/>
<text x="845.0" y="720.0" font-size="10" fill="#222" text-anchor="middle">KL_aecp_aem_dyn_mux   [p6]</text>
<text x="845.0" y="733.0" font-size="10" fill="#222" text-anchor="middle">live-field overlay mux</text>
<text x="845.0" y="746.0" font-size="10" fill="#222" text-anchor="middle">(entity_id, MAC, caps,</text>
<text x="845.0" y="759.0" font-size="10" fill="#222" text-anchor="middle">avail_index)</text>
<rect x="1040.0" y="200.0" width="380.0" height="150.0" rx="8" fill="#ffe6cc" stroke="#d79b00" stroke-width="1.3"/>
<text x="1048.0" y="239.5" font-size="10" fill="#222" text-anchor="start">adp_advertiser   [p7]</text>
<text x="1048.0" y="252.5" font-size="10" fill="#222" text-anchor="start"></text>
<text x="1048.0" y="265.5" font-size="10" fill="#222" text-anchor="start">• periodic ENTITY_AVAILABLE (valid_time)</text>
<text x="1048.0" y="278.5" font-size="10" fill="#222" text-anchor="start">• answers ENTITY_DISCOVER (rcv_discover)</text>
<text x="1048.0" y="291.5" font-size="10" fill="#222" text-anchor="start">• ENTITY_DEPARTING on link-down</text>
<text x="1048.0" y="304.5" font-size="10" fill="#222" text-anchor="start">• available_index +1 on EVERY ADPDU sent</text>
<text x="1048.0" y="317.5" font-size="10" fill="#222" text-anchor="start">  (la_avdecc/Hive strict-increment rule)</text>
<rect x="1040.0" y="430.0" width="380.0" height="56.0" rx="8" fill="#fff2cc" stroke="#d6b656" stroke-width="1.3"/>
<text x="1048.0" y="454.85" font-size="11" fill="#222" text-anchor="start">adp_tx_arbiter (low-rate merge)   [p8]</text>
<text x="1048.0" y="468.85" font-size="11" fill="#222" text-anchor="start">ADP advertise  +  AECP response</text>
<rect x="1040.0" y="560.0" width="380.0" height="56.0" rx="8" fill="#fff2cc" stroke="#d6b656" stroke-width="1.3"/>
<text x="1048.0" y="584.85" font-size="11" fill="#222" text-anchor="start">adp_tx_arbiter (datapath merge)   [p8]</text>
<text x="1048.0" y="598.85" font-size="11" fill="#222" text-anchor="start">control stream inserted in inter-frame gaps</text>
<rect x="1040.0" y="680.0" width="380.0" height="40.0" rx="8" fill="#d5e8d4" stroke="#82b366" stroke-width="1.3"/>
<text x="1230.0" y="703.85" font-size="11" fill="#222" text-anchor="middle">→ tx_axis_to_mac</text>
<rect x="60.0" y="920.0" width="180.0" height="44.0" rx="8" fill="#f5f5f5" stroke="#666" stroke-width="1.3"/>
<text x="150.0" y="932.5" font-size="10" fill="#222" text-anchor="middle">avdecc/</text>
<text x="150.0" y="945.5" font-size="10" fill="#222" text-anchor="middle">milan-v12-entity.json</text>
<text x="150.0" y="958.5" font-size="10" fill="#222" text-anchor="middle">(byte-accurate model)</text>
<rect x="270.0" y="920.0" width="150.0" height="44.0" rx="8" fill="#f5f5f5" stroke="#666" stroke-width="1.3"/>
<text x="345.0" y="939.0" font-size="10" fill="#222" text-anchor="middle">gen_aem_store.py</text>
<text x="345.0" y="952.0" font-size="10" fill="#222" text-anchor="middle">(trim → 5 descriptors)</text>
<rect x="450.0" y="920.0" width="160.0" height="44.0" rx="8" fill="#f5f5f5" stroke="#666" stroke-width="1.3"/>
<text x="530.0" y="932.5" font-size="10" fill="#222" text-anchor="middle">hdl/aecp/gen/</text>
<text x="530.0" y="945.5" font-size="10" fill="#222" text-anchor="middle">aecp_aem_rom.svh</text>
<text x="530.0" y="958.5" font-size="10" fill="#222" text-anchor="middle">(ROM+dir+overlay map)</text>
<rect x="60.0" y="985.0" width="550.0" height="70.0" rx="8" fill="#f5f5f5" stroke="#666" stroke-width="1.3"/>
<text x="68.0" y="1010.5" font-size="10" fill="#222" text-anchor="start">5 descriptors:  ENTITY → CONFIGURATION → { AVB_INTERFACE ×1 · AUDIO_UNIT ×1 · STREAM_OUTPUT ×1 }</text>
<text x="68.0" y="1023.5" font-size="10" fill="#222" text-anchor="start">one configuration · 48/96/192 kHz · AAF talker.  Static fields in ROM; live fields overlaid at</text>
<text x="68.0" y="1036.5" font-size="10" fill="#222" text-anchor="start">read.</text>
<rect x="665.0" y="920.0" width="210.0" height="64.0" rx="8" fill="#e1d5e7" stroke="#9673a6" stroke-width="1.3"/>
<text x="673.0" y="937.15" font-size="9" fill="#222" text-anchor="start">0x600 ADP/identity group</text>
<text x="673.0" y="949.15" font-size="9" fill="#222" text-anchor="start">entity_id · caps · station MAC ·</text>
<text x="673.0" y="961.15" font-size="9" fill="#222" text-anchor="start">gPTP GM/domain · valid_time</text>
<text x="673.0" y="973.15" font-size="9" fill="#222" text-anchor="start">(shared by ADP + AEM → can&#x27;t disagree)</text>
<rect x="665.0" y="995.0" width="210.0" height="60.0" rx="8" fill="#e1d5e7" stroke="#9673a6" stroke-width="1.3"/>
<text x="673.0" y="1016.15" font-size="9" fill="#222" text-anchor="start">0x648 / 0x64C  AECP status (RO)</text>
<text x="673.0" y="1028.15" font-size="9" fill="#222" text-anchor="start">locked · cmd_count · resp_count ·</text>
<text x="673.0" y="1040.15" font-size="9" fill="#222" text-anchor="start">current_configuration</text>
<rect x="925.0" y="920.0" width="440.0" height="42.0" rx="8" fill="#d5e8d4" stroke="#82b366" stroke-width="1.3"/>
<text x="933.0" y="938.15" font-size="9" fill="#222" text-anchor="start">tsn-gen ↔ Verilator co-sim (Vaecp_cosim)</text>
<text x="933.0" y="950.15" font-size="9" fill="#222" text-anchor="start">real RTL over AxiStreamBeat socket — 42/42</text>
<rect x="925.0" y="972.0" width="440.0" height="42.0" rx="8" fill="#d5e8d4" stroke="#82b366" stroke-width="1.3"/>
<text x="933.0" y="990.15" font-size="9" fill="#222" text-anchor="start">la_avdecc probe (Hive&#x27;s library) on pw0</text>
<text x="933.0" y="1002.15" font-size="9" fill="#222" text-anchor="start">full enumeration; strict payload-size checks</text>
<rect x="925.0" y="1024.0" width="440.0" height="36.0" rx="8" fill="#d5e8d4" stroke="#82b366" stroke-width="1.3"/>
<text x="933.0" y="1039.15" font-size="9" fill="#222" text-anchor="start">avdecc/milan_controller.py (peer, on silicon)</text>
<text x="933.0" y="1051.15" font-size="9" fill="#222" text-anchor="start">+ tb/verilator/aecp 68/68 · Yosys 19/19</text>
<path d="M190.0,120.0 L195.0,120.0 L195.0,200.0 L200.0,200.0" fill="none" stroke="#333" stroke-width="1.3" marker-end="url(#arr)"/>
<rect x="160.0" y="148.0" width="70.0" height="15" fill="#ffffff" fill-opacity="0.92" stroke="none"/>
<text x="195.0" y="160.0" font-size="10" fill="#444" text-anchor="middle">tap (copy)</text>
<path d="M310.0,100.0 L680.0,100.0" fill="none" stroke="#999" stroke-width="1.3" stroke-dasharray="4,3" marker-end="url(#arro)"/>
<path d="M340.0,270.0 L390.0,270.0 L390.0,223.0 L440.0,223.0" fill="none" stroke="#333" stroke-width="1.3" marker-end="url(#arr)"/>
<rect x="345.7" y="234.5" width="88.60000000000001" height="15" fill="#ffffff" fill-opacity="0.92" stroke="none"/>
<text x="390.0" y="246.5" font-size="10" fill="#444" text-anchor="middle">big-lane AXIS</text>
<path d="M685.0,246.0 L685.0,290.0" fill="none" stroke="#333" stroke-width="1.3" marker-end="url(#arr)"/>
<path d="M440.0,318.0 L550.0,318.0 L550.0,450.0 L660.0,450.0" fill="none" stroke="#333" stroke-width="1.3" marker-end="url(#arr)"/>
<rect x="515.0" y="372.0" width="70.0" height="15" fill="#ffffff" fill-opacity="0.92" stroke="none"/>
<text x="550.0" y="384.0" font-size="10" fill="#444" text-anchor="middle">aecp_hdr_t</text>
<path d="M685.0,346.0 L632.5,346.0 L632.5,550.0 L580.0,550.0" fill="none" stroke="#333" stroke-width="1.3" marker-end="url(#arr)"/>
<rect x="588.2" y="436.0" width="88.60000000000001" height="15" fill="#ffffff" fill-opacity="0.92" stroke="none"/>
<text x="632.5" y="448.0" font-size="10" fill="#444" text-anchor="middle">hdr + payload</text>
<path d="M550.0,500.0 L565.0,500.0 L565.0,550.0 L580.0,550.0" fill="none" stroke="#333" stroke-width="1.3" marker-end="url(#arr)"/>
<rect x="514.5" y="513.0" width="101.0" height="15" fill="#ffffff" fill-opacity="0.92" stroke="none"/>
<text x="565.0" y="525.0" font-size="10" fill="#444" text-anchor="middle">status / reject</text>
<path d="M740.0,428.0 L700.0,428.0 L700.0,450.0 L660.0,450.0" fill="none" stroke="#999" stroke-width="1.3" stroke-dasharray="4,3" marker-end="url(#arro)"/>
<rect x="680.5" y="427.0" width="39.0" height="15" fill="#ffffff" fill-opacity="0.92" stroke="none"/>
<text x="700.0" y="439.0" font-size="10" fill="#444" text-anchor="middle">1 kHz</text>
<path d="M200.0,340.0 L200.0,400.0" fill="none" stroke="#333" stroke-width="1.3" marker-end="url(#arr)"/>
<rect x="149.5" y="358.0" width="101.0" height="15" fill="#ffffff" fill-opacity="0.92" stroke="none"/>
<text x="200.0" y="370.0" font-size="10" fill="#444" text-anchor="middle">ENTITY_DISCOVER</text>
<path d="M340.0,422.0 L690.0,422.0 L690.0,275.0 L1040.0,275.0" fill="none" stroke="#333" stroke-width="1.3" marker-end="url(#arr)"/>
<path d="M720.0,660.0 L740.0,660.0 L740.0,578.0 L760.0,578.0" fill="none" stroke="#333" stroke-width="1.3" marker-end="url(#arr)"/>
<rect x="717.4" y="607.0" width="45.2" height="15" fill="#ffffff" fill-opacity="0.92" stroke="none"/>
<text x="740.0" y="619.0" font-size="10" fill="#444" text-anchor="middle">lookup</text>
<path d="M845.0,606.0 L845.0,626.0" fill="none" stroke="#333" stroke-width="1.3" marker-end="url(#arr)"/>
<rect x="828.6" y="604.0" width="32.8" height="15" fill="#ffffff" fill-opacity="0.92" stroke="none"/>
<text x="845.0" y="616.0" font-size="10" fill="#444" text-anchor="middle">base</text>
<path d="M845.0,682.0 L845.0,702.0" fill="none" stroke="#333" stroke-width="1.3" marker-end="url(#arr)"/>
<rect x="816.2" y="680.0" width="57.6" height="15" fill="#ffffff" fill-opacity="0.92" stroke="none"/>
<text x="845.0" y="692.0" font-size="10" fill="#444" text-anchor="middle">ROM byte</text>
<path d="M760.0,736.0 L740.0,736.0 L740.0,660.0 L720.0,660.0" fill="none" stroke="#333" stroke-width="1.3" marker-end="url(#arr)"/>
<rect x="695.7" y="686.0" width="88.60000000000001" height="15" fill="#ffffff" fill-opacity="0.92" stroke="none"/>
<text x="740.0" y="698.0" font-size="10" fill="#444" text-anchor="middle">overlaid byte</text>
<path d="M720.0,660.0 L760.0,654.0" fill="none" stroke="#333" stroke-width="1.3" marker-end="url(#arr)"/>
<rect x="717.4" y="645.0" width="45.2" height="15" fill="#ffffff" fill-opacity="0.92" stroke="none"/>
<text x="740.0" y="657.0" font-size="10" fill="#444" text-anchor="middle">SET wb</text>
<path d="M720.0,660.0 L880.0,660.0 L880.0,458.0 L1040.0,458.0" fill="none" stroke="#333" stroke-width="1.3" marker-end="url(#arr)"/>
<rect x="835.7" y="547.0" width="88.60000000000001" height="15" fill="#ffffff" fill-opacity="0.92" stroke="none"/>
<text x="880.0" y="559.0" font-size="10" fill="#444" text-anchor="middle">response AXIS</text>
<path d="M1230.0,350.0 L1230.0,430.0" fill="none" stroke="#333" stroke-width="1.3" marker-end="url(#arr)"/>
<rect x="1198.1" y="378.0" width="63.800000000000004" height="15" fill="#ffffff" fill-opacity="0.92" stroke="none"/>
<text x="1230.0" y="390.0" font-size="10" fill="#444" text-anchor="middle">advertise</text>
<path d="M1230.0,486.0 L1230.0,560.0" fill="none" stroke="#333" stroke-width="1.3" marker-end="url(#arr)"/>
<path d="M1230.0,616.0 L1230.0,680.0" fill="none" stroke="#333" stroke-width="1.3" marker-end="url(#arr)"/>
<path d="M1230.0,680.0 L1265.0,680.0 L1265.0,120.0 L1300.0,120.0" fill="none" stroke="#333" stroke-width="1.3" marker-end="url(#arr)"/>
<path d="M240.0,942.0 L270.0,942.0" fill="none" stroke="#333" stroke-width="1.3" marker-end="url(#arr)"/>
<path d="M420.0,942.0 L450.0,942.0" fill="none" stroke="#333" stroke-width="1.3" marker-end="url(#arr)"/>
<path d="M610.0,942.0 L685.0,942.0 L685.0,654.0 L760.0,654.0" fill="none" stroke="#999" stroke-width="1.3" stroke-dasharray="4,3" marker-end="url(#arro)"/>
<rect x="656.2" y="786.0" width="57.6" height="15" fill="#ffffff" fill-opacity="0.92" stroke="none"/>
<text x="685.0" y="798.0" font-size="10" fill="#444" text-anchor="middle">$include</text>
<path d="M530.0,920.0 L687.5,920.0 L687.5,606.0 L845.0,606.0" fill="none" stroke="#999" stroke-width="1.3" stroke-dasharray="4,3" marker-end="url(#arro)"/>
<path d="M610.0,942.0 L685.0,942.0 L685.0,736.0 L760.0,736.0" fill="none" stroke="#999" stroke-width="1.3" stroke-dasharray="4,3" marker-end="url(#arro)"/>
<path d="M770.0,920.0 L1000.0,920.0 L1000.0,350.0 L1230.0,350.0" fill="none" stroke="#999" stroke-width="1.3" stroke-dasharray="4,3" marker-end="url(#arro)"/>
<rect x="971.2" y="623.0" width="57.6" height="15" fill="#ffffff" fill-opacity="0.92" stroke="none"/>
<text x="1000.0" y="635.0" font-size="10" fill="#444" text-anchor="middle">identity</text>
<path d="M770.0,920.0 L675.0,920.0 L675.0,770.0 L580.0,770.0" fill="none" stroke="#999" stroke-width="1.3" stroke-dasharray="4,3" marker-end="url(#arro)"/>
<rect x="646.2" y="833.0" width="57.6" height="15" fill="#ffffff" fill-opacity="0.92" stroke="none"/>
<text x="675.0" y="845.0" font-size="10" fill="#444" text-anchor="middle">identity</text>
<path d="M580.0,770.0 L675.0,770.0 L675.0,995.0 L770.0,995.0" fill="none" stroke="#999" stroke-width="1.3" stroke-dasharray="4,3" marker-end="url(#arro)"/>
<rect x="630.7" y="870.5" width="88.60000000000001" height="15" fill="#ffffff" fill-opacity="0.92" stroke="none"/>
<text x="675.0" y="882.5" font-size="10" fill="#444" text-anchor="middle">cmd/resp/lock</text>
</svg>