<svg xmlns="http://www.w3.org/2000/svg" width="1260" height="1030" viewBox="0 0 1260 1030" font-family="Helvetica,Arial,sans-serif">
<rect width="1260" height="1030" fill="#ffffff"/>
<defs><marker id="arr" markerWidth="9" markerHeight="9" refX="7" refY="3" orient="auto"><path d="M0,0 L7,3 L0,6 z" fill="#333"/></marker><marker id="arro" markerWidth="9" markerHeight="9" refX="7" refY="3" orient="auto"><path d="M0,0 L7,3 L0,6" fill="none" stroke="#999"/></marker></defs>
<path d="M190.0,120.0 L190.0,200.0" fill="none" stroke="#333" stroke-width="1.3" marker-end="url(#arr)"/>
<text x="190.0" y="157.0" font-size="10" fill="#555" text-anchor="middle">tap (copy)</text>
<path d="M310.0,100.0 L660.0,100.0" fill="none" stroke="#999" stroke-width="1.3" stroke-dasharray="4,3" marker-end="url(#arro)"/>
<path d="M320.0,265.0 L350.0,265.0 L350.0,223.0 L380.0,223.0" fill="none" stroke="#333" stroke-width="1.3" marker-end="url(#arr)"/>
<text x="350.0" y="241.0" font-size="10" fill="#555" text-anchor="middle">big-lane AXIS</text>
<path d="M595.0,246.0 L595.0,270.0" fill="none" stroke="#333" stroke-width="1.3" marker-end="url(#arr)"/>
<path d="M595.0,326.0 L548.75,326.0 L548.75,350.0 L502.5,350.0" fill="none" stroke="#333" stroke-width="1.3" marker-end="url(#arr)"/>
<text x="548.75" y="335.0" font-size="10" fill="#555" text-anchor="middle">aecp_hdr_t</text>
<path d="M595.0,326.0 L548.75,326.0 L548.75,470.0 L502.5,470.0" fill="none" stroke="#333" stroke-width="1.3" marker-end="url(#arr)"/>
<text x="548.75" y="395.0" font-size="10" fill="#555" text-anchor="middle">hdr + payload</text>
<path d="M502.5,440.0 L502.5,470.0" fill="none" stroke="#333" stroke-width="1.3" marker-end="url(#arr)"/>
<text x="502.5" y="452.0" font-size="10" fill="#555" text-anchor="middle">status / reject</text>
<path d="M645.0,395.0 L625.0,395.0" fill="none" stroke="#999" stroke-width="1.3" stroke-dasharray="4,3" marker-end="url(#arro)"/>
<text x="635.0" y="392.0" font-size="10" fill="#555" text-anchor="middle">1 kHz</text>
<path d="M190.0,330.0 L190.0,360.0" fill="none" stroke="#333" stroke-width="1.3" marker-end="url(#arr)"/>
<text x="190.0" y="342.0" font-size="10" fill="#555" text-anchor="middle">ENTITY_DISCOVER</text>
<path d="M320.0,380.0 L600.0,380.0 L600.0,260.0 L880.0,260.0" fill="none" stroke="#333" stroke-width="1.3" marker-end="url(#arr)"/>
<text x="600.0" y="317.0" font-size="10" fill="#555" text-anchor="middle">rcv_discover</text>
<path d="M625.0,615.0 L635.0,615.0 L635.0,505.0 L645.0,505.0" fill="none" stroke="#333" stroke-width="1.3" marker-end="url(#arr)"/>
<text x="635.0" y="557.0" font-size="10" fill="#555" text-anchor="middle">desc lookup</text>
<path d="M727.5,540.0 L727.5,560.0" fill="none" stroke="#333" stroke-width="1.3" marker-end="url(#arr)"/>
<text x="727.5" y="547.0" font-size="10" fill="#555" text-anchor="middle">base</text>
<path d="M727.5,640.0 L727.5,660.0" fill="none" stroke="#333" stroke-width="1.3" marker-end="url(#arr)"/>
<text x="727.5" y="647.0" font-size="10" fill="#555" text-anchor="middle">ROM byte</text>
<path d="M645.0,710.0 L635.0,710.0 L635.0,615.0 L625.0,615.0" fill="none" stroke="#333" stroke-width="1.3" marker-end="url(#arr)"/>
<text x="635.0" y="659.5" font-size="10" fill="#555" text-anchor="middle">overlaid byte</text>
<path d="M625.0,615.0 L635.0,615.0 L635.0,600.0 L645.0,600.0" fill="none" stroke="#333" stroke-width="1.3" marker-end="url(#arr)"/>
<text x="635.0" y="604.5" font-size="10" fill="#555" text-anchor="middle">SET write-back</text>
<path d="M625.0,615.0 L752.5,615.0 L752.5,408.0 L880.0,408.0" fill="none" stroke="#333" stroke-width="1.3" marker-end="url(#arr)"/>
<text x="752.5" y="508.5" font-size="10" fill="#555" text-anchor="middle">response AXIS</text>
<path d="M1035.0,320.0 L1035.0,380.0" fill="none" stroke="#333" stroke-width="1.3" marker-end="url(#arr)"/>
<text x="1035.0" y="347.0" font-size="10" fill="#555" text-anchor="middle">advertise</text>
<path d="M1035.0,436.0 L1035.0,470.0" fill="none" stroke="#333" stroke-width="1.3" marker-end="url(#arr)"/>
<path d="M1035.0,526.0 L1035.0,560.0" fill="none" stroke="#333" stroke-width="1.3" marker-end="url(#arr)"/>
<path d="M1035.0,560.0 L1052.5,560.0 L1052.5,120.0 L1070.0,120.0" fill="none" stroke="#333" stroke-width="1.3" marker-end="url(#arr)"/>
<path d="M240.0,862.0 L270.0,862.0" fill="none" stroke="#333" stroke-width="1.3" marker-end="url(#arr)"/>
<path d="M420.0,862.0 L450.0,862.0" fill="none" stroke="#333" stroke-width="1.3" marker-end="url(#arr)"/>
<path d="M530.0,840.0 L628.75,840.0 L628.75,640.0 L727.5,640.0" fill="none" stroke="#999" stroke-width="1.3" stroke-dasharray="4,3" marker-end="url(#arro)"/>
<text x="628.75" y="737.0" font-size="10" fill="#555" text-anchor="middle">$include</text>
<path d="M530.0,840.0 L628.75,840.0 L628.75,540.0 L727.5,540.0" fill="none" stroke="#999" stroke-width="1.3" stroke-dasharray="4,3" marker-end="url(#arro)"/>
<path d="M610.0,862.0 L627.5,862.0 L627.5,710.0 L645.0,710.0" fill="none" stroke="#999" stroke-width="1.3" stroke-dasharray="4,3" marker-end="url(#arro)"/>
<path d="M765.0,840.0 L900.0,840.0 L900.0,320.0 L1035.0,320.0" fill="none" stroke="#999" stroke-width="1.3" stroke-dasharray="4,3" marker-end="url(#arro)"/>
<text x="900.0" y="577.0" font-size="10" fill="#555" text-anchor="middle">identity</text>
<path d="M660.0,870.0 L642.5,870.0 L642.5,615.0 L625.0,615.0" fill="none" stroke="#999" stroke-width="1.3" stroke-dasharray="4,3" marker-end="url(#arro)"/>
<text x="642.5" y="739.5" font-size="10" fill="#555" text-anchor="middle">identity</text>
<path d="M502.5,760.0 L633.75,760.0 L633.75,910.0 L765.0,910.0" fill="none" stroke="#999" stroke-width="1.3" stroke-dasharray="4,3" marker-end="url(#arro)"/>
<text x="633.75" y="832.0" font-size="10" fill="#555" text-anchor="middle">cmd/resp/lock</text>
<rect x="40.0" y="12.0" width="1180.0" height="30.0" rx="0" fill="#f5f5f5" stroke="#666666" stroke-width="1.3"/>
<text x="630.0" y="32.25" font-size="15" fill="#222" text-anchor="middle">Milan v1.2 ATDECC entity (IEEE 1722.1-2021) — hardware datapath · hdl/aecp</text>
<rect x="40.0" y="60.0" width="1180.0" height="70.0" rx="8" fill="none" stroke="#999999" stroke-width="1.3" stroke-dasharray="6,4"/>
<text x="48.0" y="77.0" font-size="13" fill="#222" text-anchor="start" font-weight="bold">MAC / wire (AVTP ethertype 0x22F0, in milan_datapath)</text>
<rect x="40.0" y="150.0" width="300.0" height="620.0" rx="8" fill="none" stroke="#999999" stroke-width="1.3" stroke-dasharray="6,4"/>
<text x="48.0" y="167.0" font-size="13" fill="#222" text-anchor="start" font-weight="bold">RX path</text>
<rect x="360.0" y="150.0" width="470.0" height="620.0" rx="8" fill="none" stroke="#999999" stroke-width="1.3" stroke-dasharray="6,4"/>
<text x="368.0" y="167.0" font-size="13" fill="#222" text-anchor="start" font-weight="bold">AECP / AEM core pipeline (hdl/aecp/KL_aecp_*)</text>
<rect x="850.0" y="150.0" width="370.0" height="620.0" rx="8" fill="none" stroke="#999999" stroke-width="1.3" stroke-dasharray="6,4"/>
<text x="858.0" y="167.0" font-size="13" fill="#222" text-anchor="start" font-weight="bold">TX path (low-rate control merged into MAC TX)</text>
<rect x="40.0" y="800.0" width="590.0" height="190.0" rx="8" fill="none" stroke="#999999" stroke-width="1.3" stroke-dasharray="6,4"/>
<text x="48.0" y="817.0" font-size="13" fill="#222" text-anchor="start" font-weight="bold">Entity model — single source of truth</text>
<rect x="650.0" y="800.0" width="230.0" height="190.0" rx="8" fill="none" stroke="#999999" stroke-width="1.3" stroke-dasharray="6,4"/>
<text x="658.0" y="817.0" font-size="13" fill="#222" text-anchor="start" font-weight="bold">milan_csr (CPU AXI-Lite)</text>
<rect x="900.0" y="800.0" width="320.0" height="190.0" rx="8" fill="none" stroke="#999999" stroke-width="1.3" stroke-dasharray="6,4"/>
<text x="908.0" y="817.0" font-size="13" fill="#222" text-anchor="start" font-weight="bold">Verification</text>
<rect x="70.0" y="80.0" width="240.0" height="40.0" rx="8" fill="#d5e8d4" stroke="#82b366" stroke-width="1.3"/>
<text x="190.0" y="96.85" font-size="11" fill="#222" text-anchor="middle">MAC RX → rx_mac_filter (TCAM)</text>
<text x="190.0" y="110.85" font-size="11" fill="#222" text-anchor="middle">post-filter stream rx_axis_to_dma</text>
<rect x="950.0" y="80.0" width="240.0" height="40.0" rx="8" fill="#d5e8d4" stroke="#82b366" stroke-width="1.3"/>
<text x="1070.0" y="96.85" font-size="11" fill="#222" text-anchor="middle">MAC TX (eth_mac_1g_rgmii)</text>
<text x="1070.0" y="110.85" font-size="11" fill="#222" text-anchor="middle">tx_axis_to_mac</text>
<rect x="660.0" y="85.0" width="250.0" height="30.0" rx="8" fill="#f8cecc" stroke="#b85450" stroke-width="1.3"/>
<text x="785.0" y="97.0" font-size="10" fill="#222" text-anchor="middle">→ RX DMA / CPU (kl-eth) — the tap is a</text>
<text x="785.0" y="110.0" font-size="10" fill="#222" text-anchor="middle">copy</text>
<rect x="60.0" y="200.0" width="260.0" height="130.0" rx="8" fill="#dae8fc" stroke="#6c8ebf" stroke-width="1.3"/>
<text x="68.0" y="236.0" font-size="10" fill="#222" text-anchor="start">KL_aecp_ingress • MONITOR tap on</text>
<text x="68.0" y="249.0" font-size="10" fill="#222" text-anchor="start">rx_axis_to_dma (reads only, never</text>
<text x="68.0" y="262.0" font-size="10" fill="#222" text-anchor="start">backpressures the NIC) • filter: AECP-for-us</text>
<text x="68.0" y="275.0" font-size="10" fill="#222" text-anchor="start">(dst=our MAC, 0xFB) and ADP ENTITY_DISCOVER</text>
<text x="68.0" y="288.0" font-size="10" fill="#222" text-anchor="start">• store-and-forward, strip Eth hdr, replay</text>
<text x="68.0" y="301.0" font-size="10" fill="#222" text-anchor="start">BIG-lane • capture controller src MAC</text>
<rect x="60.0" y="360.0" width="260.0" height="40.0" rx="8" fill="#ffe6cc" stroke="#d79b00" stroke-width="1.3"/>
<text x="190.0" y="377.0" font-size="10" fill="#222" text-anchor="middle">adp_discover_o → advertiser (discovery</text>
<text x="190.0" y="390.0" font-size="10" fill="#222" text-anchor="middle">response)</text>
<rect x="380.0" y="200.0" width="430.0" height="46.0" rx="8" fill="#dae8fc" stroke="#6c8ebf" stroke-width="1.3"/>
<text x="388.0" y="226.85" font-size="11" fill="#222" text-anchor="start">KL_aecp_packet_validator — drop bad message_type / CDL &lt; 12</text>
<rect x="380.0" y="270.0" width="430.0" height="56.0" rx="8" fill="#dae8fc" stroke="#6c8ebf" stroke-width="1.3"/>
<text x="388.0" y="294.85" font-size="11" fill="#222" text-anchor="start">KL_aecp_common_parser — extract aecp_hdr_t (target/controller EID,</text>
<text x="388.0" y="308.85" font-size="11" fill="#222" text-anchor="start">seq, command_type); entity_id match</text>
<rect x="380.0" y="350.0" width="245.0" height="90.0" rx="8" fill="#e1d5e7" stroke="#9673a6" stroke-width="1.3"/>
<text x="388.0" y="385.5" font-size="10" fill="#222" text-anchor="start">KL_aecp_l0_state • LOCK_ENTITY (60 s</text>
<text x="388.0" y="398.5" font-size="10" fill="#222" text-anchor="start">timeout) • ACQUIRE → NOT_SUPPORTED •</text>
<text x="388.0" y="411.5" font-size="10" fill="#222" text-anchor="start">current_configuration</text>
<rect x="645.0" y="350.0" width="165.0" height="90.0" rx="8" fill="#e1d5e7" stroke="#9673a6" stroke-width="1.3"/>
<text x="653.0" y="392.0" font-size="10" fill="#222" text-anchor="start">KL_aecp_timers 1 kHz tick →</text>
<text x="653.0" y="405.0" font-size="10" fill="#222" text-anchor="start">lock timer → counter gate</text>
<rect x="380.0" y="470.0" width="245.0" height="290.0" rx="8" fill="#dae8fc" stroke="#6c8ebf" stroke-width="1.3"/>
<text x="388.0" y="573.0" font-size="10" fill="#222" text-anchor="start">KL_aecp_response_builder — the command</text>
<text x="388.0" y="586.0" font-size="10" fill="#222" text-anchor="start">brain • capture payload, classify command</text>
<text x="388.0" y="599.0" font-size="10" fill="#222" text-anchor="start">• READ_DESCRIPTOR • GET/SET name · config</text>
<text x="388.0" y="612.0" font-size="10" fill="#222" text-anchor="start">· sampling-rate · stream-format •</text>
<text x="388.0" y="625.0" font-size="10" fill="#222" text-anchor="start">GET_STREAM_INFO · AVB_INFO • MVU</text>
<text x="388.0" y="638.0" font-size="10" fill="#222" text-anchor="start">GET_MILAN_INFO • SET_* write-back • build</text>
<text x="388.0" y="651.0" font-size="10" fill="#222" text-anchor="start">response frame (little-lane, CDL = frame</text>
<text x="388.0" y="664.0" font-size="10" fill="#222" text-anchor="start">− 26)</text>
<rect x="645.0" y="470.0" width="165.0" height="70.0" rx="8" fill="#d5e8d4" stroke="#82b366" stroke-width="1.3"/>
<text x="653.0" y="502.0" font-size="10" fill="#222" text-anchor="start">KL_aecp_accessor (type,</text>
<text x="653.0" y="515.0" font-size="10" fill="#222" text-anchor="start">index) → base, len</text>
<rect x="645.0" y="560.0" width="165.0" height="80.0" rx="8" fill="#d5e8d4" stroke="#82b366" stroke-width="1.3"/>
<text x="653.0" y="590.5" font-size="10" fill="#222" text-anchor="start">KL_aecp_aem_store</text>
<text x="653.0" y="603.5" font-size="10" fill="#222" text-anchor="start">descriptor ROM + SET</text>
<text x="653.0" y="616.5" font-size="10" fill="#222" text-anchor="start">write-back</text>
<rect x="645.0" y="660.0" width="165.0" height="100.0" rx="8" fill="#d5e8d4" stroke="#82b366" stroke-width="1.3"/>
<text x="653.0" y="687.5" font-size="10" fill="#222" text-anchor="start">KL_aecp_aem_dyn_mux</text>
<text x="653.0" y="700.5" font-size="10" fill="#222" text-anchor="start">live-field overlay:</text>
<text x="653.0" y="713.5" font-size="10" fill="#222" text-anchor="start">entity_id, MAC, caps,</text>
<text x="653.0" y="726.5" font-size="10" fill="#222" text-anchor="start">available_index,</text>
<text x="653.0" y="739.5" font-size="10" fill="#222" text-anchor="start">current_config</text>
<rect x="880.0" y="200.0" width="310.0" height="120.0" rx="8" fill="#ffe6cc" stroke="#d79b00" stroke-width="1.3"/>
<text x="888.0" y="244.0" font-size="10" fill="#222" text-anchor="start">adp_advertiser • periodic ENTITY_AVAILABLE</text>
<text x="888.0" y="257.0" font-size="10" fill="#222" text-anchor="start">(valid_time) • answers ENTITY_DISCOVER (rcv_discover)</text>
<text x="888.0" y="270.0" font-size="10" fill="#222" text-anchor="start">• ENTITY_DEPARTING on link-down • available_index</text>
<text x="888.0" y="283.0" font-size="10" fill="#222" text-anchor="start">(bumped on change only)</text>
<rect x="880.0" y="380.0" width="310.0" height="56.0" rx="8" fill="#fff2cc" stroke="#d6b656" stroke-width="1.3"/>
<text x="888.0" y="404.85" font-size="11" fill="#222" text-anchor="start">adp_tx_arbiter (low-rate merge) ADP advertise +</text>
<text x="888.0" y="418.85" font-size="11" fill="#222" text-anchor="start">AECP response</text>
<rect x="880.0" y="470.0" width="310.0" height="56.0" rx="8" fill="#fff2cc" stroke="#d6b656" stroke-width="1.3"/>
<text x="888.0" y="494.85" font-size="11" fill="#222" text-anchor="start">adp_tx_arbiter (datapath merge) control stream</text>
<text x="888.0" y="508.85" font-size="11" fill="#222" text-anchor="start">inserted in inter-frame gaps</text>
<rect x="880.0" y="560.0" width="310.0" height="40.0" rx="8" fill="#d5e8d4" stroke="#82b366" stroke-width="1.3"/>
<text x="1035.0" y="583.85" font-size="11" fill="#222" text-anchor="middle">→ tx_axis_to_mac</text>
<rect x="60.0" y="840.0" width="180.0" height="44.0" rx="8" fill="#f5f5f5" stroke="#666" stroke-width="1.3"/>
<text x="150.0" y="859.0" font-size="10" fill="#222" text-anchor="middle">avdecc/ milan-v12-entity.json</text>
<text x="150.0" y="872.0" font-size="10" fill="#222" text-anchor="middle">(byte-accurate model)</text>
<rect x="270.0" y="840.0" width="150.0" height="44.0" rx="8" fill="#f5f5f5" stroke="#666" stroke-width="1.3"/>
<text x="345.0" y="859.0" font-size="10" fill="#222" text-anchor="middle">gen_aem_store.py (trim →</text>
<text x="345.0" y="872.0" font-size="10" fill="#222" text-anchor="middle">5 descriptors)</text>
<rect x="450.0" y="840.0" width="160.0" height="44.0" rx="8" fill="#f5f5f5" stroke="#666" stroke-width="1.3"/>
<text x="530.0" y="852.5" font-size="10" fill="#222" text-anchor="middle">hdl/aecp/gen/</text>
<text x="530.0" y="865.5" font-size="10" fill="#222" text-anchor="middle">aecp_aem_rom.svh</text>
<text x="530.0" y="878.5" font-size="10" fill="#222" text-anchor="middle">(ROM+dir+overlay map)</text>
<rect x="60.0" y="905.0" width="550.0" height="70.0" rx="8" fill="#f5f5f5" stroke="#666" stroke-width="1.3"/>
<text x="68.0" y="930.5" font-size="10" fill="#222" text-anchor="start">5 descriptors: ENTITY → CONFIGURATION → { AVB_INTERFACE ×1 · AUDIO_UNIT ×1 · STREAM_OUTPUT ×1 }</text>
<text x="68.0" y="943.5" font-size="10" fill="#222" text-anchor="start">one configuration · 48/96/192 kHz · AAF talker. Static fields in ROM; live fields overlaid at</text>
<text x="68.0" y="956.5" font-size="10" fill="#222" text-anchor="start">read.</text>
<rect x="660.0" y="840.0" width="210.0" height="60.0" rx="8" fill="#e1d5e7" stroke="#9673a6" stroke-width="1.3"/>
<text x="668.0" y="855.15" font-size="9" fill="#222" text-anchor="start">0x600 ADP/identity group entity_id ·</text>
<text x="668.0" y="867.15" font-size="9" fill="#222" text-anchor="start">caps · station MAC · gPTP GM/domain ·</text>
<text x="668.0" y="879.15" font-size="9" fill="#222" text-anchor="start">valid_time (shared by ADP + AEM → can&#x27;t</text>
<text x="668.0" y="891.15" font-size="9" fill="#222" text-anchor="start">disagree)</text>
<rect x="660.0" y="910.0" width="210.0" height="60.0" rx="8" fill="#e1d5e7" stroke="#9673a6" stroke-width="1.3"/>
<text x="668.0" y="931.15" font-size="9" fill="#222" text-anchor="start">0x648 / 0x64C AECP status (RO) locked ·</text>
<text x="668.0" y="943.15" font-size="9" fill="#222" text-anchor="start">cmd_count · resp_count ·</text>
<text x="668.0" y="955.15" font-size="9" fill="#222" text-anchor="start">current_configuration</text>
<rect x="910.0" y="840.0" width="300.0" height="40.0" rx="8" fill="#d5e8d4" stroke="#82b366" stroke-width="1.3"/>
<text x="918.0" y="857.15" font-size="9" fill="#222" text-anchor="start">tsn-gen ↔ Verilator co-sim (Vaecp_cosim) real RTL over</text>
<text x="918.0" y="869.15" font-size="9" fill="#222" text-anchor="start">AxiStreamBeat socket — 30/30</text>
<rect x="910.0" y="888.0" width="300.0" height="40.0" rx="8" fill="#d5e8d4" stroke="#82b366" stroke-width="1.3"/>
<text x="918.0" y="905.15" font-size="9" fill="#222" text-anchor="start">la_avdecc probe (Hive&#x27;s library) on pw0 full enumeration;</text>
<text x="918.0" y="917.15" font-size="9" fill="#222" text-anchor="start">strict payload-size checks</text>
<rect x="910.0" y="936.0" width="300.0" height="34.0" rx="8" fill="#d5e8d4" stroke="#82b366" stroke-width="1.3"/>
<text x="918.0" y="950.15" font-size="9" fill="#222" text-anchor="start">avdecc/milan_controller.py (peer, on silicon) +</text>
<text x="918.0" y="962.15" font-size="9" fill="#222" text-anchor="start">tb/verilator/aecp 51/51</text>
</svg>