<?xml version="1.0" encoding="UTF-8" standalone="no"?>
<!DOCTYPE svg PUBLIC "-//W3C//DTD SVG 1.1//EN"
 "http://www.w3.org/Graphics/SVG/1.1/DTD/svg11.dtd">
<!-- Generated by graphviz version 2.40.1 (20161225.0304)
 -->
<!-- Title: state transitions Pages: 1 -->
<svg width="365pt" height="188pt"
 viewBox="0.00 0.00 365.00 188.00" xmlns="http://www.w3.org/2000/svg" xmlns:xlink="http://www.w3.org/1999/xlink">
<g id="graph0" class="graph" transform="scale(1 1) rotate(0) translate(4 184)">
<title>state transitions</title>
<polygon fill="#ffffff" stroke="transparent" points="-4,4 -4,-184 361,-184 361,4 -4,4"/>
<g id="clust1" class="cluster state regular">
<title>cluster_parser_state</title>
<path fill="none" stroke="#000000" stroke-width="2" d="M20,-8C20,-8 337,-8 337,-8 343,-8 349,-14 349,-20 349,-20 349,-160 349,-160 349,-166 343,-172 337,-172 337,-172 20,-172 20,-172 14,-172 8,-166 8,-160 8,-160 8,-20 8,-20 8,-14 14,-8 20,-8"/>
<text text-anchor="start" x="145.158" y="-153.2" font-family="Helvetica,sans-Serif" font-size="12.00" fill="#000000">parser_state</text>
</g>
<!-- parser_state -->
<!-- IDLE_S -->
<g id="node2" class="node state regular">
<title>IDLE_S</title>
<polygon fill="#ffffff" fill-opacity="0.003922" stroke="transparent" stroke-width="2" points="128.5,-134 65.5,-134 65.5,-98 128.5,-98 128.5,-134"/>
<text text-anchor="start" x="76.8276" y="-112.2" font-family="Helvetica,sans-Serif" font-size="12.00" fill="#000000">IDLE_S</text>
<path fill="none" stroke="#000000" stroke-width="2" d="M77.8333,-99C77.8333,-99 116.1667,-99 116.1667,-99 121.8333,-99 127.5,-104.6667 127.5,-110.3333 127.5,-110.3333 127.5,-121.6667 127.5,-121.6667 127.5,-127.3333 121.8333,-133 116.1667,-133 116.1667,-133 77.8333,-133 77.8333,-133 72.1667,-133 66.5,-127.3333 66.5,-121.6667 66.5,-121.6667 66.5,-110.3333 66.5,-110.3333 66.5,-104.6667 72.1667,-99 77.8333,-99"/>
</g>
<!-- WAIT_S -->
<g id="node3" class="node state regular">
<title>WAIT_S</title>
<polygon fill="#ffffff" fill-opacity="0.003922" stroke="transparent" stroke-width="2" points="130,-52 64,-52 64,-16 130,-16 130,-52"/>
<text text-anchor="start" x="74.6656" y="-30.2" font-family="Helvetica,sans-Serif" font-size="12.00" fill="#000000">WAIT_S</text>
<path fill="none" stroke="#000000" stroke-width="2" d="M76.3333,-17C76.3333,-17 117.6667,-17 117.6667,-17 123.3333,-17 129,-22.6667 129,-28.3333 129,-28.3333 129,-39.6667 129,-39.6667 129,-45.3333 123.3333,-51 117.6667,-51 117.6667,-51 76.3333,-51 76.3333,-51 70.6667,-51 65,-45.3333 65,-39.6667 65,-39.6667 65,-28.3333 65,-28.3333 65,-22.6667 70.6667,-17 76.3333,-17"/>
</g>
<!-- IDLE_S&#45;&gt;WAIT_S -->
<g id="edge1" class="edge transition">
<title>IDLE_S&#45;&gt;WAIT_S</title>
<path fill="none" stroke="#000000" d="M68.1603,-97.7043C62.9159,-92.9469 58.1744,-87.3454 55.212,-81 51.5934,-73.2491 54.1033,-65.8405 59.3295,-59.2905"/>
<polygon fill="#000000" stroke="#000000" points="61.9681,-61.5997 66.5079,-52.0268 56.9892,-56.6793 61.9681,-61.5997"/>
<text text-anchor="start" x="55" y="-72" font-family="Helvetica,sans-Serif" font-size="10.00" fill="#000000">s_axis.tvalid &#160;&#160;</text>
</g>
<!-- WAIT_S&#45;&gt;IDLE_S -->
<g id="edge2" class="edge transition">
<title>WAIT_S&#45;&gt;IDLE_S</title>
<path fill="none" stroke="#000000" d="M111.1876,-52.3229C114.388,-57.4473 117.3305,-63.207 119,-69 120.9109,-75.6308 119.7089,-82.5011 117.0858,-88.874"/>
<polygon fill="#000000" stroke="#000000" points="113.9657,-87.2875 112.4227,-97.7694 120.1655,-90.5376 113.9657,-87.2875"/>
<text text-anchor="start" x="119" y="-72" font-family="Helvetica,sans-Serif" font-size="10.00" fill="#000000">s_axis.tready &amp; s_axis.tvalid &amp; s_axis.tlast &#160;&#160;</text>
</g>
</g>
</svg>
