<?xml version="1.0" encoding="UTF-8" standalone="no"?>
<!DOCTYPE svg PUBLIC "-//W3C//DTD SVG 1.1//EN"
 "http://www.w3.org/Graphics/SVG/1.1/DTD/svg11.dtd">
<!-- Generated by graphviz version 2.40.1 (20161225.0304)
 -->
<!-- Title: state transitions Pages: 1 -->
<svg width="158pt" height="352pt"
 viewBox="0.00 0.00 158.00 352.00" xmlns="http://www.w3.org/2000/svg" xmlns:xlink="http://www.w3.org/1999/xlink">
<g id="graph0" class="graph" transform="scale(1 1) rotate(0) translate(4 348)">
<title>state transitions</title>
<polygon fill="#ffffff" stroke="transparent" points="-4,4 -4,-348 154,-348 154,4 -4,4"/>
<g id="clust1" class="cluster state regular">
<title>cluster_state_s</title>
<path fill="none" stroke="#000000" stroke-width="2" d="M20,-8C20,-8 130,-8 130,-8 136,-8 142,-14 142,-20 142,-20 142,-324 142,-324 142,-330 136,-336 130,-336 130,-336 20,-336 20,-336 14,-336 8,-330 8,-324 8,-324 8,-20 8,-20 8,-14 14,-8 20,-8"/>
<text text-anchor="start" x="55.659" y="-317.2" font-family="Helvetica,sans-Serif" font-size="12.00" fill="#000000">state_s</text>
</g>
<!-- state_s -->
<!-- IDLE_S -->
<g id="node2" class="node state regular">
<title>IDLE_S</title>
<polygon fill="#ffffff" fill-opacity="0.003922" stroke="transparent" stroke-width="2" points="102.5,-216 39.5,-216 39.5,-180 102.5,-180 102.5,-216"/>
<text text-anchor="start" x="50.8276" y="-194.2" font-family="Helvetica,sans-Serif" font-size="12.00" fill="#000000">IDLE_S</text>
<path fill="none" stroke="#000000" stroke-width="2" d="M51.8333,-181C51.8333,-181 90.1667,-181 90.1667,-181 95.8333,-181 101.5,-186.6667 101.5,-192.3333 101.5,-192.3333 101.5,-203.6667 101.5,-203.6667 101.5,-209.3333 95.8333,-215 90.1667,-215 90.1667,-215 51.8333,-215 51.8333,-215 46.1667,-215 40.5,-209.3333 40.5,-203.6667 40.5,-203.6667 40.5,-192.3333 40.5,-192.3333 40.5,-186.6667 46.1667,-181 51.8333,-181"/>
</g>
<!-- PARSE_FIRST_S -->
<g id="node3" class="node state regular">
<title>PARSE_FIRST_S</title>
<polygon fill="#ffffff" fill-opacity="0.003922" stroke="transparent" stroke-width="2" points="134,-134 16,-134 16,-98 134,-98 134,-134"/>
<text text-anchor="start" x="26.6598" y="-112.2" font-family="Helvetica,sans-Serif" font-size="12.00" fill="#000000">PARSE_FIRST_S</text>
<path fill="none" stroke="#000000" stroke-width="2" d="M28.3333,-99C28.3333,-99 121.6667,-99 121.6667,-99 127.3333,-99 133,-104.6667 133,-110.3333 133,-110.3333 133,-121.6667 133,-121.6667 133,-127.3333 127.3333,-133 121.6667,-133 121.6667,-133 28.3333,-133 28.3333,-133 22.6667,-133 17,-127.3333 17,-121.6667 17,-121.6667 17,-110.3333 17,-110.3333 17,-104.6667 22.6667,-99 28.3333,-99"/>
</g>
<!-- IDLE_S&#45;&gt;PARSE_FIRST_S -->
<g id="edge1" class="edge transition">
<title>IDLE_S&#45;&gt;PARSE_FIRST_S</title>
<path fill="none" stroke="#000000" d="M71.8877,-179.8015C72.3952,-169.3976 73.0429,-156.1215 73.6158,-144.3768"/>
<polygon fill="#000000" stroke="#000000" points="77.1233,-144.3063 74.1148,-134.1476 70.1316,-143.9651 77.1233,-144.3063"/>
<text text-anchor="start" x="73" y="-154" font-family="Helvetica,sans-Serif" font-size="10.00" fill="#000000">s_axis.tvalid &#160;&#160;</text>
</g>
<!-- PARSE_REST_S -->
<g id="node4" class="node state regular">
<title>PARSE_REST_S</title>
<polygon fill="#ffffff" fill-opacity="0.003922" stroke="transparent" stroke-width="2" points="133,-52 17,-52 17,-16 133,-16 133,-52"/>
<text text-anchor="start" x="27.9912" y="-30.2" font-family="Helvetica,sans-Serif" font-size="12.00" fill="#000000">PARSE_REST_S</text>
<path fill="none" stroke="#000000" stroke-width="2" d="M29.3333,-17C29.3333,-17 120.6667,-17 120.6667,-17 126.3333,-17 132,-22.6667 132,-28.3333 132,-28.3333 132,-39.6667 132,-39.6667 132,-45.3333 126.3333,-51 120.6667,-51 120.6667,-51 29.3333,-51 29.3333,-51 23.6667,-51 18,-45.3333 18,-39.6667 18,-39.6667 18,-28.3333 18,-28.3333 18,-22.6667 23.6667,-17 29.3333,-17"/>
</g>
<!-- PARSE_FIRST_S&#45;&gt;PARSE_REST_S -->
<g id="edge2" class="edge transition">
<title>PARSE_FIRST_S&#45;&gt;PARSE_REST_S</title>
<path fill="none" stroke="#000000" d="M75,-97.8015C75,-87.3976 75,-74.1215 75,-62.3768"/>
<polygon fill="#000000" stroke="#000000" points="78.5001,-62.1476 75,-52.1476 71.5001,-62.1476 78.5001,-62.1476"/>
<text text-anchor="middle" x="76.3895" y="-72" font-family="Helvetica,sans-Serif" font-size="10.00" fill="#000000"> </text>
</g>
<!-- VALID_S -->
<g id="node5" class="node state regular">
<title>VALID_S</title>
<polygon fill="#ffffff" fill-opacity="0.003922" stroke="transparent" stroke-width="2" points="106.5,-298 35.5,-298 35.5,-262 106.5,-262 106.5,-298"/>
<text text-anchor="start" x="46.8262" y="-276.2" font-family="Helvetica,sans-Serif" font-size="12.00" fill="#000000">VALID_S</text>
<path fill="none" stroke="#000000" stroke-width="2" d="M47.8333,-263C47.8333,-263 94.1667,-263 94.1667,-263 99.8333,-263 105.5,-268.6667 105.5,-274.3333 105.5,-274.3333 105.5,-285.6667 105.5,-285.6667 105.5,-291.3333 99.8333,-297 94.1667,-297 94.1667,-297 47.8333,-297 47.8333,-297 42.1667,-297 36.5,-291.3333 36.5,-285.6667 36.5,-285.6667 36.5,-274.3333 36.5,-274.3333 36.5,-268.6667 42.1667,-263 47.8333,-263"/>
</g>
<!-- VALID_S&#45;&gt;IDLE_S -->
<g id="edge3" class="edge transition">
<title>VALID_S&#45;&gt;IDLE_S</title>
<path fill="none" stroke="#000000" d="M71,-261.8015C71,-251.3976 71,-238.1215 71,-226.3768"/>
<polygon fill="#000000" stroke="#000000" points="74.5001,-226.1476 71,-216.1476 67.5001,-226.1476 74.5001,-226.1476"/>
<text text-anchor="middle" x="72.3895" y="-236" font-family="Helvetica,sans-Serif" font-size="10.00" fill="#000000"> </text>
</g>
</g>
</svg>
