<svg xmlns="http://www.w3.org/2000/svg" width="1180" height="640" viewBox="0 0 1180 640" font-family="DejaVu Sans, Arial, sans-serif">
<rect width="1180" height="640" fill="#ffffff"/>
<defs><marker id="arr" markerWidth="10" markerHeight="10" refX="8" refY="3" orient="auto"><path d="M0,0 L8,3 L0,6 Z" fill="#555"/></marker><marker id="arrR" markerWidth="10" markerHeight="10" refX="8" refY="3" orient="auto"><path d="M0,0 L8,3 L0,6 Z" fill="#c0392b"/></marker></defs>
<text x="590.0" y="34" text-anchor="middle" font-size="22" font-weight="700" fill="#111">Memory hierarchy &amp; the three RX levers</text>
<text x="590.0" y="57" text-anchor="middle" font-size="13" fill="#666">dual VexiiRiscv @100 MHz · latencies from the perf-free pointer-chase (tools_lat_mem_rd)</text>
<rect x="410" y="90" width="150" height="58" rx="8" fill="#eef3f8" stroke="#33628f" stroke-width="1.6"/>
<text x="485.0" y="117.0" text-anchor="middle" font-size="13" font-weight="700" fill="#123">Hart 0</text>
<text x="485.0" y="132.0" text-anchor="middle" font-size="11" fill="#666">in-order</text>
<rect x="580" y="90" width="150" height="58" rx="8" fill="#eef3f8" stroke="#33628f" stroke-width="1.6"/>
<text x="655.0" y="117.0" text-anchor="middle" font-size="13" font-weight="700" fill="#123">Hart 1</text>
<text x="655.0" y="132.0" text-anchor="middle" font-size="11" fill="#666">in-order</text>
<line x1="485" y1="148" x2="530" y2="196" stroke="#555" stroke-width="2" marker-end="url(#arr)"/>
<line x1="655" y1="148" x2="610" y2="196" stroke="#555" stroke-width="2" marker-end="url(#arr)"/>
<rect x="410" y="196" width="150" height="52" rx="8" fill="#f4f7fa" stroke="#7aa0c4" stroke-width="1.6"/>
<text x="485.0" y="220.0" text-anchor="middle" font-size="12.5" font-weight="700" fill="#123">L1 D$ 16 KB</text>
<text x="485.0" y="235.0" text-anchor="middle" font-size="11" fill="#666">~36 ns</text>
<rect x="580" y="196" width="150" height="52" rx="8" fill="#f4f7fa" stroke="#7aa0c4" stroke-width="1.6"/>
<text x="655.0" y="220.0" text-anchor="middle" font-size="12.5" font-weight="700" fill="#123">L1 D$ 16 KB</text>
<text x="655.0" y="235.0" text-anchor="middle" font-size="11" fill="#666">~36 ns</text>
<rect x="380" y="280" width="380" height="68" rx="8" fill="#eaf5ee" stroke="#3fae6a" stroke-width="1.6"/>
<text x="570.0" y="319.0" text-anchor="middle" font-size="14" font-weight="700" fill="#123"></text>
<text x="570.0" y="300" text-anchor="middle" font-size="13" font-weight="700" fill="#155">REFILL ENGINE  ·  8 outstanding-miss slots</text>
<rect x="410" y="314" width="30" height="24" rx="3" fill="#cdebd7" stroke="#3fae6a" stroke-width="1"/>
<text x="425.0" y="331.0" text-anchor="middle" font-size="10" font-weight="700" fill="#123">0</text>
<rect x="450" y="314" width="30" height="24" rx="3" fill="#cdebd7" stroke="#3fae6a" stroke-width="1"/>
<text x="465.0" y="331.0" text-anchor="middle" font-size="10" font-weight="700" fill="#123">1</text>
<rect x="490" y="314" width="30" height="24" rx="3" fill="#cdebd7" stroke="#3fae6a" stroke-width="1"/>
<text x="505.0" y="331.0" text-anchor="middle" font-size="10" font-weight="700" fill="#123">2</text>
<rect x="530" y="314" width="30" height="24" rx="3" fill="#cdebd7" stroke="#3fae6a" stroke-width="1"/>
<text x="545.0" y="331.0" text-anchor="middle" font-size="10" font-weight="700" fill="#123">3</text>
<rect x="570" y="314" width="30" height="24" rx="3" fill="#cdebd7" stroke="#3fae6a" stroke-width="1"/>
<text x="585.0" y="331.0" text-anchor="middle" font-size="10" font-weight="700" fill="#123">4</text>
<rect x="610" y="314" width="30" height="24" rx="3" fill="#cdebd7" stroke="#3fae6a" stroke-width="1"/>
<text x="625.0" y="331.0" text-anchor="middle" font-size="10" font-weight="700" fill="#123">5</text>
<rect x="650" y="314" width="30" height="24" rx="3" fill="#cdebd7" stroke="#3fae6a" stroke-width="1"/>
<text x="665.0" y="331.0" text-anchor="middle" font-size="10" font-weight="700" fill="#123">6</text>
<rect x="690" y="314" width="30" height="24" rx="3" fill="#cdebd7" stroke="#3fae6a" stroke-width="1"/>
<text x="705.0" y="331.0" text-anchor="middle" font-size="10" font-weight="700" fill="#123">7</text>
<line x1="485" y1="248" x2="530" y2="278" stroke="#555" stroke-width="2" marker-end="url(#arr)"/>
<line x1="655" y1="248" x2="610" y2="278" stroke="#555" stroke-width="2" marker-end="url(#arr)"/>
<rect x="380" y="384" width="380" height="54" rx="8" fill="#fdf3e7" stroke="#c98a1e" stroke-width="1.6"/>
<text x="570.0" y="409.0" text-anchor="middle" font-size="13.5" font-weight="700" fill="#123">Shared L2  64 KB</text>
<text x="570.0" y="424.0" text-anchor="middle" font-size="11" fill="#666">~178 ns   (both harts)</text>
<line x1="570.0" y1="346" x2="570.0" y2="382" stroke="#555" stroke-width="2" marker-end="url(#arr)"/>
<rect x="380" y="468" width="380" height="44" rx="8" fill="#f6f0fa" stroke="#7a4fa3" stroke-width="1.6"/>
<text x="570.0" y="488.0" text-anchor="middle" font-size="12" font-weight="700" fill="#123">LiteDRAM L2  8 KB</text>
<text x="570.0" y="503.0" text-anchor="middle" font-size="11" fill="#666">controller cache</text>
<line x1="570.0" y1="440" x2="570.0" y2="466" stroke="#555" stroke-width="2" marker-end="url(#arr)"/>
<rect x="380" y="540" width="380" height="52" rx="8" fill="#fdecea" stroke="#c0392b" stroke-width="1.6"/>
<text x="570.0" y="564.0" text-anchor="middle" font-size="13.5" font-weight="700" fill="#7a1c12">DDR3-800  DRAM</text>
<text x="570.0" y="579.0" text-anchor="middle" font-size="11" fill="#666">~340 ns  (→ 1424 ns w/ TLB miss)   ← cold RX payload lives here</text>
<line x1="570.0" y1="514" x2="570.0" y2="538" stroke="#555" stroke-width="2" marker-end="url(#arr)"/>
<text x="60" y="80" text-anchor="start" font-size="12" font-weight="700" fill="#888">LATENCY per access</text>
<text x="60" y="222" text-anchor="start" font-size="12.5" font-weight="400" fill="#444">L1  ~36 ns</text>
<line x1="180" y1="218" x2="374" y2="218" stroke="#eee" stroke-width="1"/>
<text x="60" y="410" text-anchor="start" font-size="12.5" font-weight="400" fill="#444">L2  ~178 ns</text>
<line x1="180" y1="406" x2="374" y2="406" stroke="#eee" stroke-width="1"/>
<text x="60" y="566" text-anchor="start" font-size="12.5" font-weight="400" fill="#444">DRAM 340–1424 ns</text>
<line x1="180" y1="562" x2="374" y2="562" stroke="#eee" stroke-width="1"/>
<text x="800" y="80" text-anchor="start" font-size="13" font-weight="700" fill="#111">THE THREE LEVERS</text>
<rect x="800" y="96" width="300" height="98" rx="8" fill="#f7fbf8" stroke="#3fae6a" stroke-width="1.6"/>
<text x="950.0" y="150.0" text-anchor="middle" font-size="14" font-weight="700" fill="#123"></text>
<text x="814" y="116" text-anchor="start" font-size="12.5" font-weight="700" fill="#155">1 · Non-blocking D$  (refill 1→8)</text>
<text x="814" y="136" text-anchor="start" font-size="10.5" font-weight="400" fill="#444">• was 1 slot = BLOCKING</text>
<text x="814" y="152" text-anchor="start" font-size="10.5" font-weight="400" fill="#444">• → 8 slots = up to 8 in flight (MLP)</text>
<text x="814" y="168" text-anchor="start" font-size="10.5" font-weight="700" fill="#c0392b">  BUT 0 gain ALONE (in-order core)</text>
<text x="814" y="184" text-anchor="start" font-size="10.5" font-weight="400" fill="#666">  — the slots need a FILLER</text>
<rect x="800" y="206" width="300" height="80" rx="8" fill="#eef5fb" stroke="#1f6fb2" stroke-width="1.6"/>
<text x="950.0" y="251.0" text-anchor="middle" font-size="14" font-weight="700" fill="#123"></text>
<text x="814" y="226" text-anchor="start" font-size="12.5" font-weight="700" fill="#124">2 · RPT hardware prefetcher</text>
<text x="814" y="246" text-anchor="start" font-size="10.5" font-weight="400" fill="#444">• learns the stride, FILLS the slots</text>
<text x="814" y="262" text-anchor="start" font-size="10.5" font-weight="400" fill="#444">• hides the payload cold read</text>
<text x="814" y="278" text-anchor="start" font-size="10.5" font-weight="700" fill="#c0392b">  → RX single  207 → 277  (+34%)</text>
<rect x="800" y="298" width="300" height="64" rx="8" fill="#fdf6ec" stroke="#c98a1e" stroke-width="1.6"/>
<text x="950.0" y="335.0" text-anchor="middle" font-size="14" font-weight="700" fill="#123"></text>
<text x="814" y="318" text-anchor="start" font-size="12.5" font-weight="700" fill="#634">3 · 64 KB L2  (capacity)</text>
<text x="814" y="338" text-anchor="start" font-size="10.5" font-weight="400" fill="#444">• cuts the 2-hart capacity misses</text>
<text x="814" y="354" text-anchor="start" font-size="10.5" font-weight="700" fill="#c0392b">  → RX −P2  238 → 280</text>
<rect x="800" y="374" width="300" height="58" rx="8" fill="#eaf5ee" stroke="#2b7" stroke-width="1.6"/>
<text x="950.0" y="408.0" text-anchor="middle" font-size="14" font-weight="700" fill="#123"></text>
<text x="814" y="394" text-anchor="start" font-size="12.5" font-weight="700" fill="#063">mlp3 = all three combined</text>
<text x="814" y="414" text-anchor="start" font-size="10.5" font-weight="700" fill="#155">RX −P2 = 298 (best) · slots cost 0 BRAM</text>
<rect x="800" y="444" width="300" height="150" rx="8" fill="#fdecea" stroke="#c0392b" stroke-width="1.6"/>
<text x="950.0" y="524.0" text-anchor="middle" font-size="14" font-weight="700" fill="#123"></text>
<text x="814" y="464" text-anchor="start" font-size="12.5" font-weight="700" fill="#7a1c12">NEXT LEVER · DDIO  (task #15)</text>
<text x="814" y="484" text-anchor="start" font-size="10.5" font-weight="400" fill="#444">allocate-on-DMA-write: the RX writer</text>
<text x="814" y="500" text-anchor="start" font-size="10.5" font-weight="400" fill="#444">lands the payload WARM in L2 / a stash</text>
<text x="814" y="516" text-anchor="start" font-size="10.5" font-weight="400" fill="#444">so copy_to_user hits cache, not DRAM</text>
<text x="814" y="532" text-anchor="start" font-size="10.5" font-weight="700" fill="#c0392b">→ removes the 51% cold-read wall</text>
<text x="814" y="548" text-anchor="start" font-size="10.5" font-weight="400" fill="#666">(the user's original 'network cache')</text>
<line x1="796" y1="540" x2="764" y2="556" stroke="#c0392b" stroke-width="2" marker-end="url(#arrR)"/>
</svg>