<svg xmlns="http://www.w3.org/2000/svg" width="1760" height="832" viewBox="0 0 1760 832" font-family="Helvetica,Arial,sans-serif">
<rect width="1760" height="832" fill="#FAFAFA"/>
<defs><marker id="arr" markerWidth="12" markerHeight="12" refX="7" refY="4" orient="auto"><path d="M0,0 L8,4 L0,8 Z" fill="#455A64"/></marker><marker id="arrc" markerWidth="12" markerHeight="12" refX="7" refY="4" orient="auto"><path d="M0,0 L8,4 L0,8 Z" fill="#8D6E63"/></marker></defs>
<text x="40" y="44" font-size="26" font-weight="bold" fill="#263238">milan-fpga time sync - the three clocks and how they chain</text>
<text x="40" y="70" font-size="12.5" fill="#546E7A">fabric gPTP  -&gt;  network PHC + atomic public state   -   PHC + CRF  -&gt;  media clock (MMCM-DRP servo)   -   CSR offsets per docs/reference/REGISTER_MAP.md   -   arrows = time/timestamp flow, not audio samples</text>
<text x="40" y="104" font-size="13" font-weight="700" fill="#1565C0">NETWORK TIME - gPTP (802.1AS, domain 0)</text>
<text x="40" y="278" font-size="13" font-weight="700" fill="#B26A00">THE HUB - PTP hardware clock (PHC) and its public consumers (one owner, #259)</text>
<text x="40" y="433" font-size="13" font-weight="700" fill="#EF6C00">AVTP TIMESTAMP CONSUMERS (presentation time against the PHC)</text>
<text x="40" y="566" font-size="13" font-weight="700" fill="#2E7D32">MEDIA CLOCK - CRF + MMCM-DRP servo (Milan v1.2 clause 7.3)</text>
<text x="40" y="584" font-size="11" font-weight="400" fill="#555555">coherent chain: capture, CRF grid and (via the servo) the listener playback clock follow one audio-MMCM lineage - loop -83.9 dB (2026-07-23, converter floor)</text>
<rect x="40" y="116" width="130" height="84" rx="9" fill="#ECEFF1" stroke="#455A64" stroke-width="2"/>
<text x="105.0" y="140" font-size="14" font-weight="bold" fill="#212121" text-anchor="middle">1 GbE wire</text>
<text x="105.0" y="158" font-size="11" fill="#37474F" text-anchor="middle">802.1AS peer</text>
<text x="105.0" y="173" font-size="11" fill="#37474F" text-anchor="middle">(AVB switch / board)</text>
<rect x="205" y="116" width="150" height="84" rx="9" fill="#E3F2FD" stroke="#1565C0" stroke-width="2"/>
<text x="280.0" y="140" font-size="14" font-weight="bold" fill="#212121" text-anchor="middle">PHY + MAC</text>
<text x="280.0" y="158" font-size="11" fill="#37474F" text-anchor="middle">RGMII/GMII</text>
<text x="280.0" y="173" font-size="11" fill="#37474F" text-anchor="middle">LiteEth or MilanMAC</text>
<rect x="390" y="116" width="250" height="84" rx="9" fill="#E3F2FD" stroke="#1565C0" stroke-width="2"/>
<text x="515.0" y="140" font-size="14" font-weight="bold" fill="#212121" text-anchor="middle">KL_gptp_shadow RX/TX</text>
<text x="515.0" y="158" font-size="11" fill="#37474F" text-anchor="middle">delivered-frame RX stamp</text>
<text x="515.0" y="173" font-size="11" fill="#37474F" text-anchor="middle">MAC-boundary TX stamp</text>
<rect x="675" y="116" width="200" height="84" rx="9" fill="#E3F2FD" stroke="#1565C0" stroke-width="2"/>
<text x="775.0" y="140" font-size="14" font-weight="bold" fill="#212121" text-anchor="middle">timestamp transport</text>
<text x="775.0" y="158" font-size="11" fill="#37474F" text-anchor="middle">RX side FIFO + TX seq/type</text>
<text x="775.0" y="173" font-size="11" fill="#37474F" text-anchor="middle">no software pairing race</text>
<rect x="910" y="116" width="190" height="84" rx="9" fill="#E3F2FD" stroke="#1565C0" stroke-width="2"/>
<text x="1005.0" y="140" font-size="14" font-weight="bold" fill="#212121" text-anchor="middle">KL_gptp_engine</text>
<text x="1005.0" y="158" font-size="11" fill="#37474F" text-anchor="middle">BTCA + Pdelay + Sync</text>
<text x="1005.0" y="173" font-size="11" fill="#37474F" text-anchor="middle">PHC servo in fabric</text>
<rect x="1135" y="116" width="180" height="84" rx="9" fill="#E3F2FD" stroke="#1565C0" stroke-width="2"/>
<text x="1225.0" y="140" font-size="14" font-weight="bold" fill="#212121" text-anchor="middle">atomic publish bank</text>
<text x="1225.0" y="158" font-size="11" fill="#37474F" text-anchor="middle">GM + parent + flags</text>
<text x="1225.0" y="173" font-size="11" fill="#37474F" text-anchor="middle">pdelay + offset + annq</text>
<rect x="1350" y="116" width="370" height="84" rx="9" fill="#ECEFF1" stroke="#455A64" stroke-width="2" stroke-dasharray="7 5"/>
<text x="1535.0" y="140" font-size="14" font-weight="bold" fill="#212121" text-anchor="middle">product ownership (0x0002_0055)</text>
<text x="1535.0" y="158" font-size="11" fill="#37474F" text-anchor="middle">fabric is the ONE PHC/protocol/publication owner (#259)</text>
<text x="1535.0" y="173" font-size="11" fill="#37474F" text-anchor="middle">the linuxptp software owner is retired (historical)</text>
<rect x="40" y="290" width="330" height="96" rx="9" fill="#FFF8E1" stroke="#F9A825" stroke-width="2"/>
<text x="205.0" y="314" font-size="14" font-weight="bold" fill="#212121" text-anchor="middle">PHC - timestamp_counter</text>
<text x="205.0" y="332" font-size="11" fill="#37474F" text-anchor="middle">Q8.24 ns accumulator, datapath clock</text>
<text x="205.0" y="347" font-size="11" fill="#37474F" text-anchor="middle">CSR 0x500 CTRL - 0x504 INCR - 0x508 ADJ - 0x520 CMD</text>
<rect x="1190" y="290" width="330" height="96" rx="9" fill="#E3F2FD" stroke="#1565C0" stroke-width="2"/>
<text x="1355.0" y="314" font-size="14" font-weight="bold" fill="#212121" text-anchor="middle">public gPTP consumers</text>
<text x="1355.0" y="332" font-size="11" fill="#37474F" text-anchor="middle">CSR GM/parent/pdelay - GET_AVB_INFO/PATH</text>
<text x="1355.0" y="347" font-size="11" fill="#37474F" text-anchor="middle">CLKV asCapable/sync - every AVTP tu</text>
<rect x="40" y="445" width="300" height="76" rx="9" fill="#FFF3E0" stroke="#EF6C00" stroke-width="2"/>
<text x="190.0" y="469" font-size="14" font-weight="bold" fill="#212121" text-anchor="middle">AAF packetizer</text>
<text x="190.0" y="487" font-size="11" fill="#37474F" text-anchor="middle">avtp_timestamp = ptp_now + PTO</text>
<text x="190.0" y="502" font-size="11" fill="#37474F" text-anchor="middle">(PTO: SET_STREAM_INFO acc-lat, reset 2 ms)</text>
<rect x="380" y="445" width="300" height="76" rx="9" fill="#FFF3E0" stroke="#EF6C00" stroke-width="2"/>
<text x="530.0" y="469" font-size="14" font-weight="bold" fill="#212121" text-anchor="middle">AVTP RX monitor</text>
<text x="530.0" y="487" font-size="11" fill="#37474F" text-anchor="middle">ts_delta 0x6EC = avtp_ts - ptp_now</text>
<text x="530.0" y="502" font-size="11" fill="#37474F" text-anchor="middle">LATE / EARLY counters</text>
<rect x="1430" y="445" width="290" height="76" rx="9" fill="#ECEFF1" stroke="#455A64" stroke-width="2" stroke-dasharray="7 5"/>
<text x="1575.0" y="469" font-size="14" font-weight="bold" fill="#212121" text-anchor="middle">media-lock rule</text>
<text x="1575.0" y="487" font-size="11" fill="#37474F" text-anchor="middle">internal source: lock on first valid PDU</text>
<text x="1575.0" y="502" font-size="11" fill="#37474F" text-anchor="middle">external (CRF): lock only when servo converged</text>
<rect x="40" y="596" width="230" height="96" rx="9" fill="#E8F5E9" stroke="#2E7D32" stroke-width="2"/>
<text x="155.0" y="620" font-size="14" font-weight="bold" fill="#212121" text-anchor="middle">audio MMCM 24.576 MHz</text>
<text x="155.0" y="638" font-size="11" fill="#37474F" text-anchor="middle">integer x34/43 off 31.081 MHz</text>
<text x="155.0" y="653" font-size="11" fill="#37474F" text-anchor="middle">-10.6 ppm base - fine-PS 16.9 ps + DRP</text>
<rect x="305" y="596" width="150" height="96" rx="9" fill="#E8F5E9" stroke="#2E7D32" stroke-width="2"/>
<text x="380.0" y="620" font-size="14" font-weight="bold" fill="#212121" text-anchor="middle">/512</text>
<text x="380.0" y="638" font-size="11" fill="#37474F" text-anchor="middle">48 kHz media clock</text>
<text x="380.0" y="653" font-size="11" fill="#37474F" text-anchor="middle">(MCLK/SCLK/LRCK dividers)</text>
<rect x="490" y="596" width="200" height="96" rx="9" fill="#E8F5E9" stroke="#2E7D32" stroke-width="2"/>
<text x="590.0" y="620" font-size="14" font-weight="bold" fill="#212121" text-anchor="middle">I2S / TDM front-ends</text>
<text x="590.0" y="638" font-size="11" fill="#37474F" text-anchor="middle">DAC render + ADC capture</text>
<text x="590.0" y="653" font-size="11" fill="#37474F" text-anchor="middle">pair FIFO, converged flag</text>
<rect x="725" y="596" width="240" height="96" rx="9" fill="#E8F5E9" stroke="#2E7D32" stroke-width="2"/>
<text x="845.0" y="620" font-size="14" font-weight="bold" fill="#212121" text-anchor="middle">KL_crf_tx (talker)</text>
<text x="845.0" y="638" font-size="11" fill="#37474F" text-anchor="middle">every 96th sample event:</text>
<text x="845.0" y="653" font-size="11" fill="#37474F" text-anchor="middle">ts = PHC ns + PTO - 500 PDU/s</text>
<rect x="1000" y="596" width="120" height="96" rx="9" fill="#ECEFF1" stroke="#455A64" stroke-width="2"/>
<text x="1060.0" y="620" font-size="14" font-weight="bold" fill="#212121" text-anchor="middle">wire</text>
<text x="1060.0" y="638" font-size="11" fill="#37474F" text-anchor="middle">CRF stream</text>
<text x="1060.0" y="653" font-size="11" fill="#37474F" text-anchor="middle">subtype 4</text>
<rect x="1155" y="596" width="240" height="96" rx="9" fill="#E8F5E9" stroke="#2E7D32" stroke-width="2"/>
<text x="1275.0" y="620" font-size="14" font-weight="bold" fill="#212121" text-anchor="middle">KL_crf_rx (listener)</text>
<text x="1275.0" y="638" font-size="11" fill="#37474F" text-anchor="middle">validate Milan 7.3.2 - delta 0x744</text>
<text x="1275.0" y="653" font-size="11" fill="#37474F" text-anchor="middle">rate 0x748 - lock 0x738[31]</text>
<rect x="1430" y="596" width="290" height="96" rx="9" fill="#E8F5E9" stroke="#2E7D32" stroke-width="2"/>
<text x="1575.0" y="620" font-size="14" font-weight="bold" fill="#212121" text-anchor="middle">KL_mmcm_drp_servo</text>
<text x="1575.0" y="638" font-size="11" fill="#37474F" text-anchor="middle">in: rate error (ns/512 ms) - PI FLL +-200 ppm</text>
<text x="1575.0" y="653" font-size="11" fill="#37474F" text-anchor="middle">MCSRV 0x8F8/0x8FC - engages at clock_source == 2</text>
<path d="M170,145 L205,145" fill="none" stroke="#455A64" stroke-width="1.8" marker-end="url(#arr)"/>
<text x="187.5" y="139.0" font-size="10.5" fill="#5D4037" text-anchor="middle">RX</text>
<path d="M205,175 L170,175" fill="none" stroke="#455A64" stroke-width="1.8" marker-end="url(#arr)"/>
<text x="187.5" y="169.0" font-size="10.5" fill="#5D4037" text-anchor="middle">TX</text>
<path d="M355,145 L390,145" fill="none" stroke="#455A64" stroke-width="1.8" marker-end="url(#arr)"/>
<path d="M390,175 L355,175" fill="none" stroke="#455A64" stroke-width="1.8" marker-end="url(#arr)"/>
<path d="M640,158 L675,158" fill="none" stroke="#455A64" stroke-width="1.8" marker-end="url(#arr)"/>
<path d="M875,158 L910,158" fill="none" stroke="#455A64" stroke-width="1.8" marker-end="url(#arr)"/>
<path d="M1100,158 L1135,158" fill="none" stroke="#455A64" stroke-width="1.8" marker-end="url(#arr)"/>
<text x="1117.5" y="152.0" font-size="10.5" fill="#5D4037" text-anchor="middle">commit</text>
<path d="M1225,200 L1225,246 L205,246 L205,290" fill="none" stroke="#8D6E63" stroke-width="1.8" marker-end="url(#arrc)" stroke-dasharray="6 4"/>
<text x="715.0" y="240.0" font-size="10.5" fill="#5D4037" text-anchor="middle">adjfine / adjtime (fabric owner); settime stays on CSR face</text>
<path d="M100,290 L100,224 L515,224 L515,200" fill="none" stroke="#8D6E63" stroke-width="1.8" marker-end="url(#arrc)" stroke-dasharray="6 4"/>
<text x="307.5" y="218.0" font-size="10.5" fill="#5D4037" text-anchor="middle">ptp_now (64-bit ns)</text>
<path d="M1280,200 L1280,290" fill="none" stroke="#8D6E63" stroke-width="1.8" marker-end="url(#arrc)" stroke-dasharray="6 4"/>
<text x="1286.0" y="241.0" font-size="10.5" fill="#5D4037" text-anchor="start">one coherent generation</text>
<path d="M190,386 L190,445" fill="none" stroke="#8D6E63" stroke-width="1.8" marker-end="url(#arrc)" stroke-dasharray="6 4"/>
<text x="196.0" y="411.5" font-size="10.5" fill="#5D4037" text-anchor="start">ptp_now + PTO</text>
<path d="M330,386 L330,415 L530,415 L530,445" fill="none" stroke="#8D6E63" stroke-width="1.8" marker-end="url(#arrc)" stroke-dasharray="6 4"/>
<text x="430.0" y="409.0" font-size="10.5" fill="#5D4037" text-anchor="middle">ptp_now</text>
<path d="M350,386 L350,412 L845,412 L845,596" fill="none" stroke="#8D6E63" stroke-width="1.8" marker-end="url(#arrc)" stroke-dasharray="6 4"/>
<text x="597.5" y="406.0" font-size="10.5" fill="#5D4037" text-anchor="middle">ptp_now</text>
<path d="M310,386 L310,400 L1275,400 L1275,596" fill="none" stroke="#8D6E63" stroke-width="1.8" marker-end="url(#arrc)" stroke-dasharray="6 4"/>
<text x="792.5" y="394.0" font-size="10.5" fill="#5D4037" text-anchor="middle">ptp_now</text>
<path d="M270,644 L305,644" fill="none" stroke="#455A64" stroke-width="1.8" marker-end="url(#arr)"/>
<path d="M455,644 L490,644" fill="none" stroke="#455A64" stroke-width="1.8" marker-end="url(#arr)"/>
<path d="M965,644 L1000,644" fill="none" stroke="#455A64" stroke-width="1.8" marker-end="url(#arr)"/>
<path d="M1120,644 L1155,644" fill="none" stroke="#455A64" stroke-width="1.8" marker-end="url(#arr)"/>
<path d="M1395,644 L1430,644" fill="none" stroke="#455A64" stroke-width="1.8" marker-end="url(#arr)"/>
<path d="M100,692 L100,718 L830,718 L830,692" fill="none" stroke="#8D6E63" stroke-width="1.8" marker-end="url(#arrc)" stroke-dasharray="6 4"/>
<text x="465.0" y="712.0" font-size="10.5" fill="#5D4037" text-anchor="middle">clk_audio 24.576 MHz - own /512 + /96 event grid</text>
<path d="M1575,692 L1575,744 L60,744 L60,692" fill="none" stroke="#8D6E63" stroke-width="1.8" marker-end="url(#arrc)" stroke-dasharray="6 4"/>
<text x="817.5" y="738.0" font-size="10.5" fill="#5D4037" text-anchor="middle">fine-PS step rate = ppm trim - DRP verify/repair (auto_repair 0x8FC[1])</text>
<text x="40" y="814" font-size="11" fill="#78909C">sources: hdl/ieee8021as/ptp_timestamp - hdl/ieee1722/crf - hdl/milan/milan_datapath.sv - sw/litex/milan_soc.py   -   regenerate: python3 docs/diagrams/timesync_chain.gen.py docs/diagrams/timesync_chain</text>
</svg>