<?xml version="1.0" encoding="UTF-8" standalone="no"?>
<!DOCTYPE svg PUBLIC "-//W3C//DTD SVG 1.1//EN"
 "http://www.w3.org/Graphics/SVG/1.1/DTD/svg11.dtd">
<!-- Generated by graphviz version 2.40.1 (20161225.0304)
 -->
<!-- Title: state transitions Pages: 1 -->
<svg width="356pt" height="270pt"
 viewBox="0.00 0.00 356.00 270.00" xmlns="http://www.w3.org/2000/svg" xmlns:xlink="http://www.w3.org/1999/xlink">
<g id="graph0" class="graph" transform="scale(1 1) rotate(0) translate(4 266)">
<title>state transitions</title>
<polygon fill="#ffffff" stroke="transparent" points="-4,4 -4,-266 352,-266 352,4 -4,4"/>
<g id="clust1" class="cluster state regular">
<title>cluster_database_state</title>
<path fill="none" stroke="#000000" stroke-width="2" d="M20,-8C20,-8 328,-8 328,-8 334,-8 340,-14 340,-20 340,-20 340,-242 340,-242 340,-248 334,-254 328,-254 328,-254 20,-254 20,-254 14,-254 8,-248 8,-242 8,-242 8,-20 8,-20 8,-14 14,-8 20,-8"/>
<text text-anchor="start" x="132.9792" y="-235.2" font-family="Helvetica,sans-Serif" font-size="12.00" fill="#000000">database_state</text>
</g>
<!-- database_state -->
<!-- DB_IDLE_S -->
<g id="node2" class="node state regular">
<title>DB_IDLE_S</title>
<polygon fill="#ffffff" fill-opacity="0.003922" stroke="transparent" stroke-width="2" points="237,-216 151,-216 151,-180 237,-180 237,-216"/>
<text text-anchor="start" x="161.6594" y="-194.2" font-family="Helvetica,sans-Serif" font-size="12.00" fill="#000000">DB_IDLE_S</text>
<path fill="none" stroke="#000000" stroke-width="2" d="M163.3333,-181C163.3333,-181 224.6667,-181 224.6667,-181 230.3333,-181 236,-186.6667 236,-192.3333 236,-192.3333 236,-203.6667 236,-203.6667 236,-209.3333 230.3333,-215 224.6667,-215 224.6667,-215 163.3333,-215 163.3333,-215 157.6667,-215 152,-209.3333 152,-203.6667 152,-203.6667 152,-192.3333 152,-192.3333 152,-186.6667 157.6667,-181 163.3333,-181"/>
</g>
<!-- DB_SAVE_S -->
<g id="node3" class="node state regular">
<title>DB_SAVE_S</title>
<polygon fill="#ffffff" fill-opacity="0.003922" stroke="transparent" stroke-width="2" points="108,-134 16,-134 16,-98 108,-98 108,-134"/>
<text text-anchor="start" x="26.9894" y="-112.2" font-family="Helvetica,sans-Serif" font-size="12.00" fill="#000000">DB_SAVE_S</text>
<path fill="none" stroke="#000000" stroke-width="2" d="M28.3333,-99C28.3333,-99 95.6667,-99 95.6667,-99 101.3333,-99 107,-104.6667 107,-110.3333 107,-110.3333 107,-121.6667 107,-121.6667 107,-127.3333 101.3333,-133 95.6667,-133 95.6667,-133 28.3333,-133 28.3333,-133 22.6667,-133 17,-127.3333 17,-121.6667 17,-121.6667 17,-110.3333 17,-110.3333 17,-104.6667 22.6667,-99 28.3333,-99"/>
</g>
<!-- DB_IDLE_S&#45;&gt;DB_SAVE_S -->
<g id="edge1" class="edge transition">
<title>DB_IDLE_S&#45;&gt;DB_SAVE_S</title>
<path fill="none" stroke="#000000" d="M150.8522,-192.977C114.4248,-187.7433 66.3566,-178.1562 54.534,-163 50.3004,-157.5726 49.6131,-150.7 50.6122,-143.8976"/>
<polygon fill="#000000" stroke="#000000" points="54.0168,-144.7103 53.0662,-134.1582 47.2289,-143 54.0168,-144.7103"/>
<text text-anchor="start" x="54" y="-154" font-family="Helvetica,sans-Serif" font-size="10.00" fill="#000000">talker_entity_id_valid_i &#160;&#160;</text>
</g>
<!-- DB_DELETE_S -->
<g id="node4" class="node state regular">
<title>DB_DELETE_S</title>
<polygon fill="#ffffff" fill-opacity="0.003922" stroke="transparent" stroke-width="2" points="285,-134 179,-134 179,-98 285,-98 285,-134"/>
<text text-anchor="start" x="189.6586" y="-112.2" font-family="Helvetica,sans-Serif" font-size="12.00" fill="#000000">DB_DELETE_S</text>
<path fill="none" stroke="#000000" stroke-width="2" d="M191.3333,-99C191.3333,-99 272.6667,-99 272.6667,-99 278.3333,-99 284,-104.6667 284,-110.3333 284,-110.3333 284,-121.6667 284,-121.6667 284,-127.3333 278.3333,-133 272.6667,-133 272.6667,-133 191.3333,-133 191.3333,-133 185.6667,-133 180,-127.3333 180,-121.6667 180,-121.6667 180,-110.3333 180,-110.3333 180,-104.6667 185.6667,-99 191.3333,-99"/>
</g>
<!-- DB_IDLE_S&#45;&gt;DB_DELETE_S -->
<g id="edge2" class="edge transition">
<title>DB_IDLE_S&#45;&gt;DB_DELETE_S</title>
<path fill="none" stroke="#000000" d="M202.4334,-179.8015C207.4024,-169.0791 213.785,-155.306 219.3476,-143.3026"/>
<polygon fill="#000000" stroke="#000000" points="222.5611,-144.6923 223.5901,-134.1476 216.2099,-141.7491 222.5611,-144.6923"/>
<text text-anchor="start" x="215" y="-154" font-family="Helvetica,sans-Serif" font-size="10.00" fill="#000000">talker_departed_i &#160;&#160;</text>
</g>
<!-- DB_SAVE_DONE_S -->
<g id="node6" class="node state regular">
<title>DB_SAVE_DONE_S</title>
<polygon fill="#ffffff" fill-opacity="0.003922" stroke="transparent" stroke-width="2" points="158.5,-52 25.5,-52 25.5,-16 158.5,-16 158.5,-52"/>
<text text-anchor="start" x="36.8224" y="-30.2" font-family="Helvetica,sans-Serif" font-size="12.00" fill="#000000">DB_SAVE_DONE_S</text>
<path fill="none" stroke="#000000" stroke-width="2" d="M37.8333,-17C37.8333,-17 146.1667,-17 146.1667,-17 151.8333,-17 157.5,-22.6667 157.5,-28.3333 157.5,-28.3333 157.5,-39.6667 157.5,-39.6667 157.5,-45.3333 151.8333,-51 146.1667,-51 146.1667,-51 37.8333,-51 37.8333,-51 32.1667,-51 26.5,-45.3333 26.5,-39.6667 26.5,-39.6667 26.5,-28.3333 26.5,-28.3333 26.5,-22.6667 32.1667,-17 37.8333,-17"/>
</g>
<!-- DB_SAVE_S&#45;&gt;DB_SAVE_DONE_S -->
<g id="edge3" class="edge transition">
<title>DB_SAVE_S&#45;&gt;DB_SAVE_DONE_S</title>
<path fill="none" stroke="#000000" d="M54.6364,-97.9991C52.0667,-88.989 50.6952,-78.0935 54.637,-69 56.0587,-65.7202 57.9559,-62.607 60.144,-59.6892"/>
<polygon fill="#000000" stroke="#000000" points="62.9324,-61.8192 66.9281,-52.0067 57.6853,-57.1858 62.9324,-61.8192"/>
<text text-anchor="start" x="54" y="-72" font-family="Helvetica,sans-Serif" font-size="10.00" fill="#000000">save_index_ready_r &#160;&#160;</text>
</g>
<!-- DB_DEL_DONE_S -->
<g id="node5" class="node state regular">
<title>DB_DEL_DONE_S</title>
<polygon fill="#ffffff" fill-opacity="0.003922" stroke="transparent" stroke-width="2" points="314,-52 190,-52 190,-16 314,-16 314,-52"/>
<text text-anchor="start" x="200.6598" y="-30.2" font-family="Helvetica,sans-Serif" font-size="12.00" fill="#000000">DB_DEL_DONE_S</text>
<path fill="none" stroke="#000000" stroke-width="2" d="M202.3333,-17C202.3333,-17 301.6667,-17 301.6667,-17 307.3333,-17 313,-22.6667 313,-28.3333 313,-28.3333 313,-39.6667 313,-39.6667 313,-45.3333 307.3333,-51 301.6667,-51 301.6667,-51 202.3333,-51 202.3333,-51 196.6667,-51 191,-45.3333 191,-39.6667 191,-39.6667 191,-28.3333 191,-28.3333 191,-22.6667 196.6667,-17 202.3333,-17"/>
</g>
<!-- DB_DELETE_S&#45;&gt;DB_DEL_DONE_S -->
<g id="edge4" class="edge transition">
<title>DB_DELETE_S&#45;&gt;DB_DEL_DONE_S</title>
<path fill="none" stroke="#000000" d="M222.495,-97.8191C219.1332,-88.9629 216.9716,-78.2542 220.521,-69 221.6917,-65.9478 223.265,-62.9949 225.0867,-60.1848"/>
<polygon fill="#000000" stroke="#000000" points="227.8721,-62.3041 231.142,-52.2265 222.3013,-58.0654 227.8721,-62.3041"/>
<text text-anchor="start" x="220" y="-72" font-family="Helvetica,sans-Serif" font-size="10.00" fill="#000000">delete_index_ready_r &#160;&#160;</text>
</g>
<!-- DB_DEL_DONE_S&#45;&gt;DB_IDLE_S -->
<g id="edge5" class="edge transition">
<title>DB_DEL_DONE_S&#45;&gt;DB_IDLE_S</title>
<path fill="none" stroke="#000000" d="M308.7715,-52.1606C315.5936,-56.6247 321.6662,-62.1561 326,-69 348.8512,-105.0863 335.2262,-131.8516 306,-163 297.4782,-172.0822 271.5477,-180.4729 246.7817,-186.7608"/>
<polygon fill="#000000" stroke="#000000" points="245.9046,-183.3721 237.0241,-189.1504 247.5697,-190.1712 245.9046,-183.3721"/>
<text text-anchor="middle" x="338.3895" y="-113" font-family="Helvetica,sans-Serif" font-size="10.00" fill="#000000"> </text>
</g>
<!-- DB_SAVE_DONE_S&#45;&gt;DB_IDLE_S -->
<g id="edge6" class="edge transition">
<title>DB_SAVE_DONE_S&#45;&gt;DB_IDLE_S</title>
<path fill="none" stroke="#000000" d="M135.9958,-52.2008C142.9031,-56.7753 149.3004,-62.3317 154,-69 170.8881,-92.9631 156.6482,-105.9653 165.221,-134 169.0235,-146.4348 174.6579,-159.6259 179.9357,-170.7811"/>
<polygon fill="#000000" stroke="#000000" points="176.8975,-172.5362 184.427,-179.9899 183.1891,-169.4676 176.8975,-172.5362"/>
<text text-anchor="middle" x="166.3895" y="-113" font-family="Helvetica,sans-Serif" font-size="10.00" fill="#000000"> </text>
</g>
</g>
</svg>
