<?xml version="1.0" encoding="UTF-8" standalone="no"?>
<!DOCTYPE svg PUBLIC "-//W3C//DTD SVG 1.1//EN"
 "http://www.w3.org/Graphics/SVG/1.1/DTD/svg11.dtd">
<!-- Generated by graphviz version 2.40.1 (20161225.0304)
 -->
<!-- Title: state transitions Pages: 1 -->
<svg width="431pt" height="270pt"
 viewBox="0.00 0.00 430.74 270.00" xmlns="http://www.w3.org/2000/svg" xmlns:xlink="http://www.w3.org/1999/xlink">
<g id="graph0" class="graph" transform="scale(1 1) rotate(0) translate(4 266)">
<title>state transitions</title>
<polygon fill="#ffffff" stroke="transparent" points="-4,4 -4,-266 426.737,-266 426.737,4 -4,4"/>
<g id="clust1" class="cluster state regular">
<title>cluster_save_state</title>
<path fill="none" stroke="#000000" stroke-width="2" d="M20,-8C20,-8 373,-8 373,-8 379,-8 385,-14 385,-20 385,-20 385,-242 385,-242 385,-248 379,-254 373,-254 373,-254 20,-254 20,-254 14,-254 8,-248 8,-242 8,-242 8,-20 8,-20 8,-14 14,-8 20,-8"/>
<text text-anchor="start" x="167.4882" y="-235.2" font-family="Helvetica,sans-Serif" font-size="12.00" fill="#000000">save_state</text>
</g>
<!-- save_state -->
<!-- INDEX_IDLE_S -->
<g id="node2" class="node state regular">
<title>INDEX_IDLE_S</title>
<polygon fill="#ffffff" fill-opacity="0.003922" stroke="transparent" stroke-width="2" points="209,-216 103,-216 103,-180 209,-180 209,-216"/>
<text text-anchor="start" x="113.6592" y="-194.2" font-family="Helvetica,sans-Serif" font-size="12.00" fill="#000000">INDEX_IDLE_S</text>
<path fill="none" stroke="#000000" stroke-width="2" d="M115.3333,-181C115.3333,-181 196.6667,-181 196.6667,-181 202.3333,-181 208,-186.6667 208,-192.3333 208,-192.3333 208,-203.6667 208,-203.6667 208,-209.3333 202.3333,-215 196.6667,-215 196.6667,-215 115.3333,-215 115.3333,-215 109.6667,-215 104,-209.3333 104,-203.6667 104,-203.6667 104,-192.3333 104,-192.3333 104,-186.6667 109.6667,-181 115.3333,-181"/>
</g>
<!-- INDEX_SEARCH_S -->
<g id="node3" class="node state regular">
<title>INDEX_SEARCH_S</title>
<polygon fill="#ffffff" fill-opacity="0.003922" stroke="transparent" stroke-width="2" points="146,-134 16,-134 16,-98 146,-98 146,-134"/>
<text text-anchor="start" x="26.9964" y="-112.2" font-family="Helvetica,sans-Serif" font-size="12.00" fill="#000000">INDEX_SEARCH_S</text>
<path fill="none" stroke="#000000" stroke-width="2" d="M28.3333,-99C28.3333,-99 133.6667,-99 133.6667,-99 139.3333,-99 145,-104.6667 145,-110.3333 145,-110.3333 145,-121.6667 145,-121.6667 145,-127.3333 139.3333,-133 133.6667,-133 133.6667,-133 28.3333,-133 28.3333,-133 22.6667,-133 17,-127.3333 17,-121.6667 17,-121.6667 17,-110.3333 17,-110.3333 17,-104.6667 22.6667,-99 28.3333,-99"/>
</g>
<!-- INDEX_IDLE_S&#45;&gt;INDEX_SEARCH_S -->
<g id="edge1" class="edge transition">
<title>INDEX_IDLE_S&#45;&gt;INDEX_SEARCH_S</title>
<path fill="none" stroke="#000000" d="M139.3551,-179.8015C129.0625,-168.5483 115.6965,-153.9348 104.3538,-141.5335"/>
<polygon fill="#000000" stroke="#000000" points="106.9302,-139.1644 97.5984,-134.1476 101.7649,-143.8888 106.9302,-139.1644"/>
<text text-anchor="middle" x="124.3895" y="-154" font-family="Helvetica,sans-Serif" font-size="10.00" fill="#000000"> </text>
</g>
<!-- INDEX_WAIT_S -->
<g id="node4" class="node state regular">
<title>INDEX_WAIT_S</title>
<polygon fill="#ffffff" fill-opacity="0.003922" stroke="transparent" stroke-width="2" points="215,-52 105,-52 105,-16 215,-16 215,-52"/>
<text text-anchor="start" x="115.9972" y="-30.2" font-family="Helvetica,sans-Serif" font-size="12.00" fill="#000000">INDEX_WAIT_S</text>
<path fill="none" stroke="#000000" stroke-width="2" d="M117.3333,-17C117.3333,-17 202.6667,-17 202.6667,-17 208.3333,-17 214,-22.6667 214,-28.3333 214,-28.3333 214,-39.6667 214,-39.6667 214,-45.3333 208.3333,-51 202.6667,-51 202.6667,-51 117.3333,-51 117.3333,-51 111.6667,-51 106,-45.3333 106,-39.6667 106,-39.6667 106,-28.3333 106,-28.3333 106,-22.6667 111.6667,-17 117.3333,-17"/>
</g>
<!-- INDEX_SEARCH_S&#45;&gt;INDEX_WAIT_S -->
<g id="edge2" class="edge transition">
<title>INDEX_SEARCH_S&#45;&gt;INDEX_WAIT_S</title>
<path fill="none" stroke="#000000" d="M61.4229,-97.9677C54.0145,-88.9497 48.7743,-78.0565 55.296,-69 60.7325,-61.4505 77.1024,-54.5937 95.3318,-48.9898"/>
<polygon fill="#000000" stroke="#000000" points="96.3646,-52.3345 104.986,-46.1765 94.4061,-45.614 96.3646,-52.3345"/>
<text text-anchor="start" x="55" y="-72" font-family="Helvetica,sans-Serif" font-size="10.00" fill="#000000">!(active_talker_r[save_index_counter_r]) &#160;&#160;</text>
</g>
<!-- INDEX_WAIT_S&#45;&gt;INDEX_IDLE_S -->
<g id="edge3" class="edge transition">
<title>INDEX_WAIT_S&#45;&gt;INDEX_IDLE_S</title>
<path fill="none" stroke="#000000" d="M215.0264,-45.2647C233.8056,-52.2961 248.8028,-63.4716 243,-81 231.1161,-116.8979 203.4763,-150.7409 182.5159,-172.7033"/>
<polygon fill="#000000" stroke="#000000" points="179.908,-170.364 175.4172,-179.96 184.912,-175.259 179.908,-170.364"/>
<text text-anchor="start" x="236" y="-113" font-family="Helvetica,sans-Serif" font-size="10.00" fill="#000000">database_state == DB_SAVE_DONE_S &#160;&#160;</text>
</g>
</g>
</svg>
