<?xml version="1.0" encoding="UTF-8" standalone="no"?>
<!DOCTYPE svg PUBLIC "-//W3C//DTD SVG 1.1//EN"
 "http://www.w3.org/Graphics/SVG/1.1/DTD/svg11.dtd">
<!-- Generated by graphviz version 2.40.1 (20161225.0304)
 -->
<!-- Title: state transitions Pages: 1 -->
<svg width="647pt" height="270pt"
 viewBox="0.00 0.00 647.00 270.00" xmlns="http://www.w3.org/2000/svg" xmlns:xlink="http://www.w3.org/1999/xlink">
<g id="graph0" class="graph" transform="scale(1 1) rotate(0) translate(4 266)">
<title>state transitions</title>
<polygon fill="#ffffff" stroke="transparent" points="-4,4 -4,-266 643,-266 643,4 -4,4"/>
<g id="clust1" class="cluster state regular">
<title>cluster_control_state</title>
<path fill="none" stroke="#000000" stroke-width="2" d="M20,-8C20,-8 619,-8 619,-8 625,-8 631,-14 631,-20 631,-20 631,-242 631,-242 631,-248 625,-254 619,-254 619,-254 20,-254 20,-254 14,-254 8,-248 8,-242 8,-242 8,-20 8,-20 8,-14 14,-8 20,-8"/>
<text text-anchor="start" x="285.1566" y="-235.2" font-family="Helvetica,sans-Serif" font-size="12.00" fill="#000000">control_state</text>
</g>
<!-- control_state -->
<!-- CTRL_IDLE_S -->
<g id="node2" class="node state regular">
<title>CTRL_IDLE_S</title>
<polygon fill="#ffffff" fill-opacity="0.003922" stroke="transparent" stroke-width="2" points="301.5,-216 200.5,-216 200.5,-180 301.5,-180 301.5,-216"/>
<text text-anchor="start" x="211.8286" y="-194.2" font-family="Helvetica,sans-Serif" font-size="12.00" fill="#000000">CTRL_IDLE_S</text>
<path fill="none" stroke="#000000" stroke-width="2" d="M212.8333,-181C212.8333,-181 289.1667,-181 289.1667,-181 294.8333,-181 300.5,-186.6667 300.5,-192.3333 300.5,-192.3333 300.5,-203.6667 300.5,-203.6667 300.5,-209.3333 294.8333,-215 289.1667,-215 289.1667,-215 212.8333,-215 212.8333,-215 207.1667,-215 201.5,-209.3333 201.5,-203.6667 201.5,-203.6667 201.5,-192.3333 201.5,-192.3333 201.5,-186.6667 207.1667,-181 212.8333,-181"/>
</g>
<!-- CTRL_SEARCH_S -->
<g id="node3" class="node state regular">
<title>CTRL_SEARCH_S</title>
<polygon fill="#ffffff" fill-opacity="0.003922" stroke="transparent" stroke-width="2" points="206,-134 82,-134 82,-98 206,-98 206,-134"/>
<text text-anchor="start" x="92.6658" y="-112.2" font-family="Helvetica,sans-Serif" font-size="12.00" fill="#000000">CTRL_SEARCH_S</text>
<path fill="none" stroke="#000000" stroke-width="2" d="M94.3333,-99C94.3333,-99 193.6667,-99 193.6667,-99 199.3333,-99 205,-104.6667 205,-110.3333 205,-110.3333 205,-121.6667 205,-121.6667 205,-127.3333 199.3333,-133 193.6667,-133 193.6667,-133 94.3333,-133 94.3333,-133 88.6667,-133 83,-127.3333 83,-121.6667 83,-121.6667 83,-110.3333 83,-110.3333 83,-104.6667 88.6667,-99 94.3333,-99"/>
</g>
<!-- CTRL_IDLE_S&#45;&gt;CTRL_SEARCH_S -->
<g id="edge1" class="edge transition">
<title>CTRL_IDLE_S&#45;&gt;CTRL_SEARCH_S</title>
<path fill="none" stroke="#000000" d="M200.3827,-196.0966C148.6767,-192.9623 73.4739,-184.702 55.309,-163 44.2603,-149.7999 54.9436,-139.7888 72.2326,-132.4711"/>
<polygon fill="#000000" stroke="#000000" points="73.6599,-135.674 81.7957,-128.8872 71.2034,-129.1191 73.6599,-135.674"/>
<text text-anchor="start" x="55" y="-154" font-family="Helvetica,sans-Serif" font-size="10.00" fill="#000000">rcv_adp_available_i &#160;&#160;</text>
</g>
<!-- CTRL_IDLE_S&#45;&gt;CTRL_SEARCH_S -->
<g id="edge2" class="edge transition">
<title>CTRL_IDLE_S&#45;&gt;CTRL_SEARCH_S</title>
<path fill="none" stroke="#000000" d="M220.7439,-179.9887C212.5524,-174.7733 203.8161,-168.8905 196.08,-163 187.3591,-156.3596 178.3332,-148.5792 170.2946,-141.2811"/>
<polygon fill="#000000" stroke="#000000" points="172.3535,-138.4183 162.633,-134.2038 167.6038,-143.5602 172.3535,-138.4183"/>
<text text-anchor="start" x="196" y="-154" font-family="Helvetica,sans-Serif" font-size="10.00" fill="#000000">rcv_adp_departing_i &#160;&#160;</text>
</g>
<!-- CTRL_SEARCH_S&#45;&gt;CTRL_IDLE_S -->
<g id="edge3" class="edge transition">
<title>CTRL_SEARCH_S&#45;&gt;CTRL_IDLE_S</title>
<path fill="none" stroke="#000000" d="M206.1429,-122.4807C242.9698,-127.7472 284.6172,-136.6983 296,-151 302.0149,-158.5573 298.9924,-166.3091 292.2984,-173.2827"/>
<polygon fill="#000000" stroke="#000000" points="289.852,-170.7711 284.5793,-179.9607 294.4319,-176.065 289.852,-170.7711"/>
<text text-anchor="start" x="299" y="-154" font-family="Helvetica,sans-Serif" font-size="10.00" fill="#000000">matched_index_r == MAX_BOUNDED_TALKER_CNT_C &#45; 1 &#160;&#160;</text>
</g>
<!-- CTRL_MATCHED_S -->
<g id="node4" class="node state regular">
<title>CTRL_MATCHED_S</title>
<polygon fill="#ffffff" fill-opacity="0.003922" stroke="transparent" stroke-width="2" points="399.5,-52 266.5,-52 266.5,-16 399.5,-16 399.5,-52"/>
<text text-anchor="start" x="277.5044" y="-30.2" font-family="Helvetica,sans-Serif" font-size="12.00" fill="#000000">CTRL_MATCHED_S</text>
<path fill="none" stroke="#000000" stroke-width="2" d="M278.8333,-17C278.8333,-17 387.1667,-17 387.1667,-17 392.8333,-17 398.5,-22.6667 398.5,-28.3333 398.5,-28.3333 398.5,-39.6667 398.5,-39.6667 398.5,-45.3333 392.8333,-51 387.1667,-51 387.1667,-51 278.8333,-51 278.8333,-51 273.1667,-51 267.5,-45.3333 267.5,-39.6667 267.5,-39.6667 267.5,-28.3333 267.5,-28.3333 267.5,-22.6667 273.1667,-17 278.8333,-17"/>
</g>
<!-- CTRL_SEARCH_S&#45;&gt;CTRL_MATCHED_S -->
<g id="edge4" class="edge transition">
<title>CTRL_SEARCH_S&#45;&gt;CTRL_MATCHED_S</title>
<path fill="none" stroke="#000000" d="M128.4435,-97.5624C122.5005,-88.2248 118.6308,-77.1677 125.536,-69 134.1665,-58.7915 200.7654,-48.8134 256.2143,-42.1403"/>
<polygon fill="#000000" stroke="#000000" points="256.9018,-45.5835 266.4216,-40.9334 256.0798,-38.6319 256.9018,-45.5835"/>
<text text-anchor="start" x="125" y="-72" font-family="Helvetica,sans-Serif" font-size="10.00" fill="#000000">(bounded_talker_db_r[matched_index_r] == rcv_entity_info_r.entity_id) &amp;&amp; active_talker_r[matched_index_r] &#160;&#160;</text>
</g>
<!-- CTRL_MATCHED_S&#45;&gt;CTRL_IDLE_S -->
<g id="edge5" class="edge transition">
<title>CTRL_MATCHED_S&#45;&gt;CTRL_IDLE_S</title>
<path fill="none" stroke="#000000" d="M399.6236,-37.6972C478.4829,-42.7679 600.9538,-53.1028 615,-69 618.5314,-72.9967 616.0414,-75.7693 615,-81 607.2961,-119.6936 612.605,-139.385 581,-163 579.6606,-164.0008 406.5609,-181.9725 311.636,-191.763"/>
<polygon fill="#000000" stroke="#000000" points="311.1714,-188.2923 301.5831,-192.7994 311.8893,-195.2553 311.1714,-188.2923"/>
<text text-anchor="middle" x="613.3895" y="-113" font-family="Helvetica,sans-Serif" font-size="10.00" fill="#000000"> </text>
</g>
</g>
</svg>
