<?xml version="1.0" encoding="UTF-8" standalone="no"?>
<!DOCTYPE svg PUBLIC "-//W3C//DTD SVG 1.1//EN"
 "http://www.w3.org/Graphics/SVG/1.1/DTD/svg11.dtd">
<!-- Generated by graphviz version 2.40.1 (20161225.0304)
 -->
<!-- Title: state transitions Pages: 1 -->
<svg width="457pt" height="270pt"
 viewBox="0.00 0.00 456.51 270.00" xmlns="http://www.w3.org/2000/svg" xmlns:xlink="http://www.w3.org/1999/xlink">
<g id="graph0" class="graph" transform="scale(1 1) rotate(0) translate(4 266)">
<title>state transitions</title>
<polygon fill="#ffffff" stroke="transparent" points="-4,4 -4,-266 452.508,-266 452.508,4 -4,4"/>
<g id="clust1" class="cluster state regular">
<title>cluster_delete_state</title>
<path fill="none" stroke="#000000" stroke-width="2" d="M20,-8C20,-8 366,-8 366,-8 372,-8 378,-14 378,-20 378,-20 378,-242 378,-242 378,-248 372,-254 366,-254 366,-254 20,-254 20,-254 14,-254 8,-248 8,-242 8,-242 8,-20 8,-20 8,-14 14,-8 20,-8"/>
<text text-anchor="start" x="160.8186" y="-235.2" font-family="Helvetica,sans-Serif" font-size="12.00" fill="#000000">delete_state</text>
</g>
<!-- delete_state -->
<!-- INDEX_IDLE_S -->
<g id="node2" class="node state regular">
<title>INDEX_IDLE_S</title>
<polygon fill="#ffffff" fill-opacity="0.003922" stroke="transparent" stroke-width="2" points="189,-216 83,-216 83,-180 189,-180 189,-216"/>
<text text-anchor="start" x="93.6592" y="-194.2" font-family="Helvetica,sans-Serif" font-size="12.00" fill="#000000">INDEX_IDLE_S</text>
<path fill="none" stroke="#000000" stroke-width="2" d="M95.3333,-181C95.3333,-181 176.6667,-181 176.6667,-181 182.3333,-181 188,-186.6667 188,-192.3333 188,-192.3333 188,-203.6667 188,-203.6667 188,-209.3333 182.3333,-215 176.6667,-215 176.6667,-215 95.3333,-215 95.3333,-215 89.6667,-215 84,-209.3333 84,-203.6667 84,-203.6667 84,-192.3333 84,-192.3333 84,-186.6667 89.6667,-181 95.3333,-181"/>
</g>
<!-- INDEX_SEARCH_S -->
<g id="node3" class="node state regular">
<title>INDEX_SEARCH_S</title>
<polygon fill="#ffffff" fill-opacity="0.003922" stroke="transparent" stroke-width="2" points="146,-134 16,-134 16,-98 146,-98 146,-134"/>
<text text-anchor="start" x="26.9964" y="-112.2" font-family="Helvetica,sans-Serif" font-size="12.00" fill="#000000">INDEX_SEARCH_S</text>
<path fill="none" stroke="#000000" stroke-width="2" d="M28.3333,-99C28.3333,-99 133.6667,-99 133.6667,-99 139.3333,-99 145,-104.6667 145,-110.3333 145,-110.3333 145,-121.6667 145,-121.6667 145,-127.3333 139.3333,-133 133.6667,-133 133.6667,-133 28.3333,-133 28.3333,-133 22.6667,-133 17,-127.3333 17,-121.6667 17,-121.6667 17,-110.3333 17,-110.3333 17,-104.6667 22.6667,-99 28.3333,-99"/>
</g>
<!-- INDEX_IDLE_S&#45;&gt;INDEX_SEARCH_S -->
<g id="edge1" class="edge transition">
<title>INDEX_IDLE_S&#45;&gt;INDEX_SEARCH_S</title>
<path fill="none" stroke="#000000" d="M113.1362,-179.9036C107.787,-174.8606 102.474,-169.0834 98.419,-163 94.6181,-157.2978 91.5073,-150.6562 89.0217,-144.1928"/>
<polygon fill="#000000" stroke="#000000" points="92.1931,-142.6536 85.6211,-134.3434 85.5763,-144.9381 92.1931,-142.6536"/>
<text text-anchor="start" x="98" y="-154" font-family="Helvetica,sans-Serif" font-size="10.00" fill="#000000">talker_departed_i &#160;&#160;</text>
</g>
<!-- INDEX_WAIT_S -->
<g id="node4" class="node state regular">
<title>INDEX_WAIT_S</title>
<polygon fill="#ffffff" fill-opacity="0.003922" stroke="transparent" stroke-width="2" points="248,-52 138,-52 138,-16 248,-16 248,-52"/>
<text text-anchor="start" x="148.9972" y="-30.2" font-family="Helvetica,sans-Serif" font-size="12.00" fill="#000000">INDEX_WAIT_S</text>
<path fill="none" stroke="#000000" stroke-width="2" d="M150.3333,-17C150.3333,-17 235.6667,-17 235.6667,-17 241.3333,-17 247,-22.6667 247,-28.3333 247,-28.3333 247,-39.6667 247,-39.6667 247,-45.3333 241.3333,-51 235.6667,-51 235.6667,-51 150.3333,-51 150.3333,-51 144.6667,-51 139,-45.3333 139,-39.6667 139,-39.6667 139,-28.3333 139,-28.3333 139,-22.6667 144.6667,-17 150.3333,-17"/>
</g>
<!-- INDEX_SEARCH_S&#45;&gt;INDEX_WAIT_S -->
<g id="edge2" class="edge transition">
<title>INDEX_SEARCH_S&#45;&gt;INDEX_WAIT_S</title>
<path fill="none" stroke="#000000" d="M60.8334,-97.791C53.2266,-88.7279 47.8964,-77.8478 54.783,-69 64.1806,-56.926 96.7326,-48.3514 127.8853,-42.712"/>
<polygon fill="#000000" stroke="#000000" points="128.6589,-46.1304 137.9195,-40.9835 127.4704,-39.232 128.6589,-46.1304"/>
<text text-anchor="start" x="54" y="-72" font-family="Helvetica,sans-Serif" font-size="10.00" fill="#000000">bounded_talker_db_r[delete_index_counter_r] == talker_entity_id_r &#160;&#160;</text>
</g>
<!-- INDEX_WAIT_S&#45;&gt;INDEX_IDLE_S -->
<g id="edge3" class="edge transition">
<title>INDEX_WAIT_S&#45;&gt;INDEX_IDLE_S</title>
<path fill="none" stroke="#000000" d="M248.1964,-38.0245C291.8582,-42.4918 347.7649,-51.5148 362,-69 365.3672,-73.136 365.4135,-76.9021 362,-81 335.245,-113.1197 307.6834,-81.0024 269.492,-98 226.2069,-117.2646 223.0587,-134.782 185,-163 180.212,-166.55 175.1261,-170.2548 170.1127,-173.8694"/>
<polygon fill="#000000" stroke="#000000" points="167.8958,-171.1522 161.809,-179.824 171.9752,-176.8407 167.8958,-171.1522"/>
<text text-anchor="start" x="269" y="-113" font-family="Helvetica,sans-Serif" font-size="10.00" fill="#000000">database_state == DB_DEL_DONE_S &#160;&#160;</text>
</g>
</g>
</svg>
