<svg xmlns="http://www.w3.org/2000/svg" width="1080" height="600" viewBox="0 0 1080 600" font-family="DejaVu Sans, Arial, sans-serif">
<rect width="1080" height="600" fill="#ffffff"/>
<text x="540.0" y="34" text-anchor="middle" font-size="23" font-weight="700" fill="#111">Milan FPGA NIC — RX/TX throughput by lever</text>
<text x="540.0" y="58" text-anchor="middle" font-size="13.5" fill="#555">2026-07 campaign · 100 MHz · dual VexiiRiscv · deterministic split harness · goal &gt;500 Mbit/s RX+TX</text>
<line x1="74" y1="482.0" x2="780" y2="482.0" stroke="#e6e6e6" stroke-width="1"/>
<text x="64" y="486.0" text-anchor="end" font-size="12" fill="#888">0</text>
<line x1="74" y1="411.1" x2="780" y2="411.1" stroke="#e6e6e6" stroke-width="1"/>
<text x="64" y="415.1" text-anchor="end" font-size="12" fill="#888">100</text>
<line x1="74" y1="340.2" x2="780" y2="340.2" stroke="#e6e6e6" stroke-width="1"/>
<text x="64" y="344.2" text-anchor="end" font-size="12" fill="#888">200</text>
<line x1="74" y1="269.3" x2="780" y2="269.3" stroke="#e6e6e6" stroke-width="1"/>
<text x="64" y="273.3" text-anchor="end" font-size="12" fill="#888">300</text>
<line x1="74" y1="198.4" x2="780" y2="198.4" stroke="#e6e6e6" stroke-width="1"/>
<text x="64" y="202.4" text-anchor="end" font-size="12" fill="#888">400</text>
<line x1="74" y1="127.5" x2="780" y2="127.5" stroke="#e6e6e6" stroke-width="1"/>
<text x="64" y="131.5" text-anchor="end" font-size="12" fill="#888">500</text>
<text x="20" y="287.0" text-anchor="middle" font-size="13" fill="#555" transform="rotate(-90 20 287.0)">Mbit/s</text>
<line x1="74" y1="127.5" x2="780" y2="127.5" stroke="#d1495b" stroke-width="2" stroke-dasharray="8 5"/>
<text x="776" y="120.5" text-anchor="end" font-size="12.5" font-weight="700" fill="#d1495b">GOAL 500</text>
<rect x="103.8" y="335.9" width="26" height="146.1" fill="#7db8e8" rx="2"/>
<text x="116.8" y="330.9" text-anchor="middle" font-size="11.5" font-weight="700" fill="#333">206</text>
<rect x="135.8" y="313.2" width="26" height="168.8" fill="#1f6fb2" rx="2"/>
<text x="148.8" y="308.2" text-anchor="middle" font-size="11.5" font-weight="700" fill="#333">238</text>
<text x="132.8" y="504.0" text-anchor="middle" font-size="13.5" font-weight="700" fill="#222">m1</text>
<text x="132.8" y="520.0" text-anchor="middle" font-size="10.5" fill="#777">32K L2</text>
<text x="132.8" y="534.0" text-anchor="middle" font-size="10.5" fill="#777">blocking D$</text>
<rect x="205.5" y="335.2" width="26" height="146.8" fill="#7db8e8" rx="2"/>
<text x="218.5" y="330.2" text-anchor="middle" font-size="11.5" font-weight="700" fill="#333">207</text>
<rect x="237.5" y="283.5" width="26" height="198.5" fill="#1f6fb2" rx="2"/>
<text x="250.5" y="278.5" text-anchor="middle" font-size="11.5" font-weight="700" fill="#333">280</text>
<rect x="269.5" y="194.8" width="26" height="287.2" fill="#3fae6a" rx="2"/>
<text x="282.5" y="189.8" text-anchor="middle" font-size="11.5" font-weight="700" fill="#333">405</text>
<text x="250.5" y="504.0" text-anchor="middle" font-size="13.5" font-weight="700" fill="#222">l2x2</text>
<text x="250.5" y="520.0" text-anchor="middle" font-size="10.5" fill="#777">+64K L2</text>
<rect x="339.2" y="341.6" width="26" height="140.4" fill="#7db8e8" rx="2"/>
<text x="352.2" y="336.6" text-anchor="middle" font-size="11.5" font-weight="700" fill="#333">198</text>
<rect x="371.2" y="319.6" width="26" height="162.4" fill="#1f6fb2" rx="2"/>
<text x="384.2" y="314.6" text-anchor="middle" font-size="11.5" font-weight="700" fill="#333">229</text>
<text x="368.2" y="504.0" text-anchor="middle" font-size="13.5" font-weight="700" fill="#222">mlp1</text>
<text x="368.2" y="520.0" text-anchor="middle" font-size="10.5" fill="#777">+refill=8</text>
<rect x="440.8" y="285.6" width="26" height="196.4" fill="#7db8e8" rx="2"/>
<text x="453.8" y="280.6" text-anchor="middle" font-size="11.5" font-weight="700" fill="#333">277</text>
<rect x="472.8" y="307.6" width="26" height="174.4" fill="#1f6fb2" rx="2"/>
<text x="485.8" y="302.6" text-anchor="middle" font-size="11.5" font-weight="700" fill="#333">246</text>
<rect x="504.8" y="216.1" width="26" height="265.9" fill="#3fae6a" rx="2"/>
<text x="517.8" y="211.1" text-anchor="middle" font-size="11.5" font-weight="700" fill="#333">375</text>
<text x="485.8" y="504.0" text-anchor="middle" font-size="13.5" font-weight="700" fill="#222">mlp2</text>
<text x="485.8" y="520.0" text-anchor="middle" font-size="10.5" fill="#777">+RPT pref.</text>
<rect x="558.5" y="298.3" width="26" height="183.7" fill="#7db8e8" rx="2"/>
<text x="571.5" y="293.3" text-anchor="middle" font-size="11.5" font-weight="700" fill="#333">259</text>
<rect x="590.5" y="270.7" width="26" height="211.3" fill="#1f6fb2" rx="2"/>
<text x="603.5" y="265.7" text-anchor="middle" font-size="11.5" font-weight="700" fill="#333">298</text>
<rect x="622.5" y="188.4" width="26" height="293.6" fill="#3fae6a" rx="2"/>
<text x="635.5" y="183.4" text-anchor="middle" font-size="11.5" font-weight="700" fill="#333">414</text>
<text x="603.5" y="504.0" text-anchor="middle" font-size="13.5" font-weight="700" fill="#222">mlp3</text>
<text x="603.5" y="520.0" text-anchor="middle" font-size="10.5" fill="#777">+RPT+64K</text>
<rect x="692.2" y="179.2" width="26" height="302.8" fill="#7db8e8" rx="2"/>
<text x="705.2" y="174.2" text-anchor="middle" font-size="11.5" font-weight="700" fill="#333">427</text>
<rect x="724.2" y="140.9" width="26" height="341.1" fill="#1f6fb2" rx="2"/>
<text x="737.2" y="135.9" text-anchor="middle" font-size="11.5" font-weight="700" fill="#333">481</text>
<text x="721.2" y="504.0" text-anchor="middle" font-size="13.5" font-weight="700" fill="#222">copy‑removed</text>
<text x="721.2" y="520.0" text-anchor="middle" font-size="10.5" fill="#777">(MSG_TRUNC)</text>
<line x1="74" y1="482" x2="780" y2="482" stroke="#999" stroke-width="1.3"/>
<rect x="806" y="100" width="16" height="16" fill="#7db8e8" rx="2"/>
<text x="829" y="113" font-size="12.5" fill="#333">RX single-flow</text>
<rect x="806" y="126" width="16" height="16" fill="#1f6fb2" rx="2"/>
<text x="829" y="139" font-size="12.5" fill="#333">RX −P2  (2 harts)</text>
<rect x="806" y="152" width="16" height="16" fill="#3fae6a" rx="2"/>
<text x="829" y="165" font-size="12.5" fill="#333">TX −P4</text>
<text x="806" y="196" font-size="12.5" font-weight="700" fill="#333">What moved the needle</text>
<text x="806" y="218" font-size="11.5" fill="#1f6fb2">RX −P2:  238 →280 (L2) →298 (RPT)</text>
<text x="806" y="238" font-size="11.5" fill="#7db8e8">RX single:  207 →277  (+34% RPT)</text>
<text x="806" y="258" font-size="11.5" fill="#3fae6a">TX −P4 ≈410 both (UNAFFECTED)</text>
<text x="806" y="278" font-size="11.5" fill="#3fae6a">TX −P2 peaks 525–536  (&gt;500!)</text>
<text x="806" y="298" font-size="11.5" fill="#d1495b">RX ceiling 481 (copy removed)</text>
<text x="806" y="318" font-size="11.5" fill="#666">recv copy = 51% of RX CPU</text>
<text x="74" y="566" font-size="12" fill="#444">Levers: 64K L2 (capacity, +18% RX−P2) · non-blocking D$ refill=8 (0 gain alone) · RPT hardware prefetcher (fills the slots → +34% single) · both compound in mlp3.</text>
<text x="74" y="584" font-size="12" fill="#444">RX −P2 wall = the recv payload copy (cold DRAM reads); removing it (MSG_TRUNC) reaches 481 = 96% of goal. TX crosses 500 at mlp3 −P2.</text>
</svg>