<svg xmlns="http://www.w3.org/2000/svg" width="1340" height="1162" viewBox="0 0 1340 1162" font-family="Helvetica,Arial,sans-serif">
<rect width="1340" height="1162" fill="#ffffff"/>
<text x="30" y="40" font-size="24" font-weight="bold" fill="#263238">Milan TSN NIC: system domain map</text>
<text x="30" y="66" font-size="13" fill="#546E7A">every module by domain / language · software (top) → silicon (bottom) · host tooling generates &amp; deploys the stack</text>
<rect x="30" y="90" width="900" height="120" rx="8" fill="#B2DFDB" stroke="#00796B" stroke-width="2"/>
<text x="44" y="115" font-size="16" font-weight="bold" fill="#212121">Bare-metal firmware</text>
<text x="44" y="115" font-size="16" fill="#212121"><tspan> </tspan></text>
<text x="916" y="115" font-size="11.5" fill="#00796B" text-anchor="end">on target · C (the one software surface, #259)</text>
<rect x="40" y="142" width="880" height="26" rx="4" fill="#ffffff" fill-opacity="0.72" stroke="#00796B" stroke-opacity="0.5" stroke-width="1"/>
<text x="50" y="159" font-size="12.5" fill="#212121">Milan UART/CSR firmware: milan_status · milan_gettime · milan_settime · milan_utc</text>
<rect x="40" y="174" width="880" height="26" rx="4" fill="#ffffff" fill-opacity="0.72" stroke="#00796B" stroke-opacity="0.5" stroke-width="1"/>
<text x="50" y="191" font-size="12.5" fill="#212121">LiteX BIOS (ROM): console + CRC&#x27;d copy of the raw AEM image from its QSPI slot</text>
<rect x="30" y="226" width="900" height="152" rx="8" fill="#C8E6C9" stroke="#2E7D32" stroke-width="2"/>
<text x="44" y="251" font-size="16" font-weight="bold" fill="#212121">SoC integration: LiteX / Migen</text>
<text x="44" y="251" font-size="16" fill="#212121"><tspan> </tspan></text>
<text x="916" y="251" font-size="11.5" fill="#2E7D32" text-anchor="end">dev host · Python → Verilog  (sw/litex/milan_soc.py)</text>
<rect x="40" y="278" width="880" height="26" rx="4" fill="#ffffff" fill-opacity="0.72" stroke="#2E7D32" stroke-opacity="0.5" stroke-width="1"/>
<text x="50" y="295" font-size="12.5" fill="#212121">MilanSoC (top: VexiiRiscv RV32 + DDR3 + NIC + flash)   ·   _CRG (PLL/clocks/CDC)</text>
<rect x="40" y="310" width="880" height="26" rx="4" fill="#ffffff" fill-opacity="0.72" stroke="#2E7D32" stroke-opacity="0.5" stroke-width="1"/>
<text x="50" y="327" font-size="12.5" fill="#212121">MilanNIC / add_milan_datapath   ·   MilanMAC (LiteEth wire glue)</text>
<rect x="40" y="342" width="880" height="26" rx="4" fill="#ffffff" fill-opacity="0.72" stroke="#2E7D32" stroke-opacity="0.5" stroke-width="1"/>
<text x="50" y="359" font-size="12.5" fill="#212121">CSR bridge to bare-metal firmware   ·   fabric audio pins to board I/O</text>
<rect x="30" y="394" width="900" height="440" rx="8" fill="#BBDEFB" stroke="#1565C0" stroke-width="2"/>
<text x="44" y="419" font-size="16" font-weight="bold" fill="#212121">Milan datapath: RTL</text>
<text x="44" y="419" font-size="16" fill="#212121"><tspan> </tspan></text>
<text x="916" y="419" font-size="11.5" fill="#1565C0" text-anchor="end">FPGA fabric · SystemVerilog / Verilog  (hdl/)</text>
<rect x="40" y="446" width="880" height="26" rx="4" fill="#ffffff" fill-opacity="0.72" stroke="#1565C0" stroke-opacity="0.5" stroke-width="1"/>
<text x="50" y="463" font-size="12.5" fill="#212121">common: milan_datapath · rx_mac_filter · tcam · cdc_*</text>
<rect x="40" y="478" width="880" height="26" rx="4" fill="#ffffff" fill-opacity="0.72" stroke="#1565C0" stroke-opacity="0.5" stroke-width="1"/>
<text x="50" y="495" font-size="12.5" fill="#212121">csr: milan_csr  (the AXI-Lite register ABI shared with bare-metal firmware)</text>
<rect x="40" y="510" width="880" height="26" rx="4" fill="#ffffff" fill-opacity="0.72" stroke="#1565C0" stroke-opacity="0.5" stroke-width="1"/>
<text x="50" y="527" font-size="12.5" fill="#212121">PTP: timestamp_counter · ptp_csr_sync (the PHC) · KL_ptp_clock_validity</text>
<rect x="40" y="542" width="880" height="26" rx="4" fill="#ffffff" fill-opacity="0.72" stroke="#1565C0" stroke-opacity="0.5" stroke-width="1"/>
<text x="50" y="559" font-size="12.5" fill="#212121">stand-alone verified, not in the shipped datapath: 802.1Q CBS/classifier chain</text>
<rect x="40" y="574" width="880" height="26" rx="4" fill="#ffffff" fill-opacity="0.72" stroke="#1565C0" stroke-opacity="0.5" stroke-width="1"/>
<text x="50" y="591" font-size="12.5" fill="#212121">            (traffic_controller_802_1q + queues/shaping core) · ptp_ts_top/ptp_ts_core</text>
<rect x="40" y="606" width="880" height="26" rx="4" fill="#ffffff" fill-opacity="0.72" stroke="#1565C0" stroke-opacity="0.5" stroke-width="1"/>
<text x="50" y="623" font-size="12.5" fill="#212121">1722 AVTP: KL_avtp_common_parser   ·   adp_tx_arbiter (generic 2-in-1-out AXIS mux)</text>
<rect x="40" y="638" width="880" height="26" rx="4" fill="#ffffff" fill-opacity="0.72" stroke="#1565C0" stroke-opacity="0.5" stroke-width="1"/>
<text x="50" y="655" font-size="12.5" fill="#212121">control plane: KL_pp_shadow (protocol-processor submodule: ADP · ACMP · SRP · AECP)</text>
<rect x="40" y="670" width="880" height="26" rx="4" fill="#ffffff" fill-opacity="0.72" stroke="#1565C0" stroke-opacity="0.5" stroke-width="1"/>
<text x="50" y="687" font-size="12.5" fill="#212121">               KL_pp_maap_shim + KL_maap  (MAAP stays in this fabric)</text>
<rect x="40" y="702" width="880" height="26" rx="4" fill="#ffffff" fill-opacity="0.72" stroke="#1565C0" stroke-opacity="0.5" stroke-width="1"/>
<text x="50" y="719" font-size="12.5" fill="#212121">               AECP uCPU: READ_DESCRIPTOR plus mandatory control/state subset</text>
<rect x="40" y="734" width="880" height="26" rx="4" fill="#ffffff" fill-opacity="0.72" stroke="#1565C0" stroke-opacity="0.5" stroke-width="1"/>
<text x="50" y="751" font-size="12.5" fill="#212121">               GET_COUNTERS / GET_AUDIO_MAP / GET_AS_PATH / GET_AVB_INFO / Milan info</text>
<rect x="40" y="766" width="880" height="26" rx="4" fill="#ffffff" fill-opacity="0.72" stroke="#1565C0" stroke-opacity="0.5" stroke-width="1"/>
<text x="50" y="783" font-size="12.5" fill="#212121">               unsupported commands return NOT_IMPLEMENTED</text>
<rect x="40" y="798" width="880" height="26" rx="4" fill="#ffffff" fill-opacity="0.72" stroke="#1565C0" stroke-opacity="0.5" stroke-width="1"/>
<text x="50" y="815" font-size="12.5" fill="#212121">events: ethernet_events · event_counter</text>
<rect x="30" y="850" width="900" height="120" rx="8" fill="#E1BEE7" stroke="#6A1B9A" stroke-width="2"/>
<text x="44" y="875" font-size="16" font-weight="bold" fill="#212121">Vendored IP</text>
<text x="44" y="875" font-size="16" fill="#212121"><tspan> </tspan></text>
<text x="916" y="875" font-size="11.5" fill="#6A1B9A" text-anchor="end">FPGA fabric · 3rd-party cores</text>
<rect x="40" y="902" width="880" height="26" rx="4" fill="#ffffff" fill-opacity="0.72" stroke="#6A1B9A" stroke-opacity="0.5" stroke-width="1"/>
<text x="50" y="919" font-size="12.5" fill="#212121">VexiiRiscv (product RV32I CPU, SpinalHDL)   ·   LiteEth (MAC + GMII PHY)</text>
<rect x="40" y="934" width="880" height="26" rx="4" fill="#ffffff" fill-opacity="0.72" stroke="#6A1B9A" stroke-opacity="0.5" stroke-width="1"/>
<text x="50" y="951" font-size="12.5" fill="#212121">LiteDRAM (DDR3, A7DDRPHY)   ·   LiteSPI (QSPI flash)   ·   verilog-axis (Forencich)</text>
<rect x="30" y="986" width="900" height="120" rx="8" fill="#CFD8DC" stroke="#37474F" stroke-width="2"/>
<text x="44" y="1011" font-size="16" font-weight="bold" fill="#212121">Board / silicon</text>
<text x="44" y="1011" font-size="16" fill="#212121"><tspan> </tspan></text>
<text x="916" y="1011" font-size="11.5" fill="#37474F" text-anchor="end">physical</text>
<rect x="40" y="1038" width="880" height="26" rx="4" fill="#ffffff" fill-opacity="0.72" stroke="#37474F" stroke-opacity="0.5" stroke-width="1"/>
<text x="50" y="1055" font-size="12.5" fill="#212121">XC7A100T-2FGG484 (Artix-7)  ·  DDR3 512 MB (MT41J256M16)</text>
<rect x="40" y="1070" width="880" height="26" rx="4" fill="#ffffff" fill-opacity="0.72" stroke="#37474F" stroke-opacity="0.5" stroke-width="1"/>
<text x="50" y="1087" font-size="12.5" fill="#212121">QSPI 16 MB (Micron N25Q128)  ·  RTL8211E GbE PHY  ·  200 MHz clk</text>
<rect x="970" y="90" width="340" height="216" rx="8" fill="#FFF9C4" stroke="#F9A825" stroke-width="2"/>
<text x="984" y="115" font-size="16" font-weight="bold" fill="#212121">Host tooling</text>
<text x="984" y="115" font-size="16" fill="#212121"><tspan> </tspan></text>
<text x="1296" y="115" font-size="11.5" fill="#F9A825" text-anchor="end">Python / bash</text>
<rect x="980" y="142" width="320" height="26" rx="4" fill="#ffffff" fill-opacity="0.72" stroke="#F9A825" stroke-opacity="0.5" stroke-width="1"/>
<text x="990" y="159" font-size="12.5" fill="#212121">milan_soc.py: SoC/gateware generator (bare-metal profile only, #259)</text>
<rect x="980" y="174" width="320" height="26" rx="4" fill="#ffffff" fill-opacity="0.72" stroke="#F9A825" stroke-opacity="0.5" stroke-width="1"/>
<text x="990" y="191" font-size="12.5" fill="#212121">endstation_builder.py: AEM image + fabric gPTP ROM from ONE config</text>
<rect x="980" y="206" width="320" height="26" rx="4" fill="#ffffff" fill-opacity="0.72" stroke="#F9A825" stroke-opacity="0.5" stroke-width="1"/>
<text x="990" y="223" font-size="12.5" fill="#212121">deploy.sh: build / load / flash-pair (live QSPI owner proof)</text>
<rect x="980" y="238" width="320" height="26" rx="4" fill="#ffffff" fill-opacity="0.72" stroke="#F9A825" stroke-opacity="0.5" stroke-width="1"/>
<text x="990" y="255" font-size="12.5" fill="#212121">build.sh: named bare-metal configs + flash transaction</text>
<rect x="980" y="270" width="320" height="26" rx="4" fill="#ffffff" fill-opacity="0.72" stroke="#F9A825" stroke-opacity="0.5" stroke-width="1"/>
<text x="990" y="287" font-size="12.5" fill="#212121">crcfbigen: firmware-image wrapper</text>
<defs><marker id="a" markerWidth="10" markerHeight="10" refX="8" refY="3" orient="auto"><path d="M0,0 L8,3 L0,6 Z" fill="#F9A825"/></marker></defs>
<path d="M1140 306 L1140 760 L938 760" fill="none" stroke="#F9A825" stroke-width="2.5" marker-end="url(#a)" stroke-dasharray="6 4"/>
<text x="970" y="334" font-size="12" fill="#F57F17">generates · flashes · boots the whole stack</text>
</svg>